<?xml version="1.0" encoding="utf-8"?><svg xmlns="http://www.w3.org/2000/svg" xmlns:xlink="http://www.w3.org/1999/xlink"><symbol fill="none" viewBox="0 0 22 40" id="arrow-icon" xmlns="http://www.w3.org/2000/svg"><path d="M21.346 18.902L2.844.452a1.551 1.551 0 00-2.19 2.196L18.055 20 .655 37.352a1.55 1.55 0 102.19 2.195l18.502-18.45a1.548 1.548 0 000-2.195z" fill="#19191D"/></symbol><symbol fill="none" viewBox="0 0 60 60" id="calendar_icon" xmlns="http://www.w3.org/2000/svg"><path d="M8.71 9.677a2.907 2.907 0 01-2.903-2.903v-3.87A2.906 2.906 0 018.71 0c1.6 0 2.903 1.303 2.903 2.903v3.871c0 1.6-1.303 2.903-2.903 2.903zm7.742 0a2.907 2.907 0 01-2.903-2.903v-3.87A2.905 2.905 0 0116.452 0c1.6 0 2.903 1.303 2.903 2.903v3.871c0 1.6-1.303 2.903-2.903 2.903zm7.742 0a2.907 2.907 0 01-2.903-2.903v-3.87A2.905 2.905 0 0124.194 0c1.6 0 2.903 1.303 2.903 2.903v3.871c0 1.6-1.303 2.903-2.903 2.903zm7.742 0a2.907 2.907 0 01-2.904-2.903v-3.87A2.907 2.907 0 0131.936 0c1.6 0 2.903 1.303 2.903 2.903v3.871c0 1.6-1.303 2.903-2.903 2.903zm7.741 0a2.907 2.907 0 01-2.903-2.903v-3.87C36.774 1.302 38.077 0 39.677 0s2.904 1.303 2.904 2.903v3.871c0 1.6-1.303 2.903-2.904 2.903z" fill="#FFA627"/><path d="M46.452 35.806h1.935V3.872h-5.806v1.935h3.87v30zm-44.517-30h3.871V3.871H0v44.516h35.806v-1.935H1.937V5.806z" fill="#717171"/><path d="M3.871 19.355v25.16h17.42v-7.741h22.257v-.968h.968V11.613h-17.42v7.742H3.872zm23.226 1.935v5.806H21.29V21.29h5.807zm9.677 7.742h5.807v5.806h-5.807v-5.806zm-1.935 5.806h-5.807v-5.806h5.807v5.806zm1.935-7.742V21.29h5.807v5.806h-5.807zm-1.935 0h-5.807V21.29h5.807v5.806zm-15.484 0h-5.807V21.29h5.807v5.806zm-5.807 1.936h5.807v5.806h-5.807v-5.806zm-1.935 5.806H5.806v-5.806h5.807v5.806zm0-13.548v5.806H5.806V21.29h5.807zM5.806 36.774h5.807v5.806H5.806v-5.806zm13.549 5.806h-5.807v-5.806h5.807v5.806zm1.935-13.548h5.807v5.806H21.29v-5.806zm21.29-9.677h-5.806v-5.807h5.807v5.807zm-13.548-5.807h5.807v5.807h-5.807v-5.807z" fill="#717171"/><path d="M47.42 60C54.366 60 60 54.367 60 47.42c0-6.949-5.633-12.581-12.58-12.581-6.949 0-12.581 5.632-12.581 12.58C34.839 54.368 40.47 60 47.419 60z" fill="#FFA627"/><path d="M13.548 3.871h-1.935v1.935h1.935V3.871zm7.742 0h-1.935v1.935h1.935V3.871zm7.742 0h-1.935v1.935h1.935V3.871zm7.742 0H34.84v1.935h1.935V3.871zm3.871 42.581H38.71v1.935h1.935v-1.935zm1.261.551l1.975-.13h1.028v1.552h-3.003v-1.422zm0 2.923l1.975-.13h7.478v1.551h-9.453v-1.421zm1.704-10.734h3.649c3.175 0 5.674 1.346 5.674 4.577 0 3.266-2.59 4.656-5.674 4.656h-.897v6.803H43.61V39.192zm3.467 7.68c1.976 0 3.145-1.078 3.145-2.952 0-2.057-1.17-2.843-3.145-2.843h-.716v5.796h.716z" fill="#717171"/></symbol><symbol fill="none" viewBox="0 0 40 40" id="chat_icon" xmlns="http://www.w3.org/2000/svg"><path d="M20 40c11.046 0 20-8.954 20-20S31.046 0 20 0 0 8.954 0 20s8.954 20 20 20z" fill="#fff"/><path fill-rule="evenodd" clip-rule="evenodd" d="M20 38.095c9.994 0 18.095-8.101 18.095-18.095 0-9.994-8.101-18.095-18.095-18.095-9.994 0-18.095 8.101-18.095 18.095 0 9.994 8.101 18.095 18.095 18.095zM40 20c0 11.046-8.954 20-20 20S0 31.046 0 20 8.954 0 20 0s20 8.954 20 20z" fill="#F2793D"/><path d="M7.41 19.638c-.324.152-.515.39-.581.6-.058.2-.048.42.066.715.076.19.248.342.515.457 2.933 1.104 4.57 1.647 4.933 1.647a2.51 2.51 0 001.086-.257l2.504-1.619 3.838-2.457L22.83 16.8c.41-.257.676-.41.8-.457.304-.105.428-.048.514 0 .086.047.143.21 0 .457a4.762 4.762 0 01-.4.533l-1.048 1-1.38 1.324-1.486 1.372-1.248 1.257-.82.78-1.056 1.01a.865.865 0 00-.229.543c-.01.2.048.4.172.6l.266.324 1.02.686 1.837 1.343c3 2.114 4.572 3.228 4.724 3.333.153.105.324.18.524.219.276.01.562-.067.848-.22.285-.151.514-.561.666-1.228 2.153-10.162 3.258-15.38 3.324-15.676.048-.238.22-.78.143-1.238-.057-.381-.343-.686-.476-.8-.134-.114-.524-.257-.867-.257-.114 0-.276.038-.495.105l-2.286.828-6.028 2.286-7.181 2.752c-3.296 1.2-5.038 1.857-5.257 1.962z" fill="#fff"/><g clip-path="url(#cclip0_206_4810)" fill="#F2793D"><path d="M23.091 9.524H12.225a3.643 3.643 0 00-3.653 3.653v4.765a3.652 3.652 0 003.653 3.653h1.561v4.169l4.275-4.17h5.03a3.652 3.652 0 003.653-3.652v-4.765a3.66 3.66 0 00-3.653-3.653z"/><path d="M29.868 19.794h-2.17a4.962 4.962 0 01-4.607 3.11h-3.944v3.297c0 1.072.86 1.932 1.932 1.932h4.17l2.978 2.978v-2.978h1.64c1.073 0 1.933-.86 1.933-1.932v-4.46c0-1.073-.86-1.947-1.932-1.947z"/></g><defs><clipPath id="cclip0_206_4810"><path fill="#fff" transform="translate(8.572 9.524)" d="M0 0h23.229v21.587H0z"/></clipPath></defs></symbol><symbol fill="none" viewBox="0 0 10 6" id="down-arrow-small" xmlns="http://www.w3.org/2000/svg"><path fill-rule="evenodd" clip-rule="evenodd" d="M8.913 1.13a.583.583 0 010 .824l-3.5 3.5a.583.583 0 01-.825 0l-3.5-3.5a.583.583 0 11.825-.825L5 4.217l3.088-3.088a.583.583 0 01.825 0z" fill="#FF6927"/></symbol><symbol fill="none" viewBox="0 0 24 24" id="facebook-icon" xmlns="http://www.w3.org/2000/svg"><path fill-rule="evenodd" clip-rule="evenodd" d="M13.55 3.5h-.03a2.934 2.934 0 00-2.904 2.963l-.04 4.284a1 1 0 01-1 .987H7v1.798h2.623a1 1 0 011 1V20.5h2.387v-5.968a1 1 0 011-1h2.548l.276-1.798H14.01a1 1 0 01-1-1v-3.45c0-1.096.888-1.984 1.983-1.984H17V3.5h-3.45zm-.05-2H18a1 1 0 011 1v3.8a1 1 0 01-1 1h-2.99v2.434H18a1 1 0 01.988 1.152l-.584 3.798a1 1 0 01-.988.848H15.01V21.5a1 1 0 01-1 1H9.623a1 1 0 01-1-1v-5.968H6a1 1 0 01-1-1v-3.798a1 1 0 011-1h2.589l.033-2.607-.006-.643A4.934 4.934 0 0113.5 1.5z" fill="#999"/><path d="M13.52 3.5H17v1.8h-2.007a1.983 1.983 0 00-1.983 1.983v3.45a1 1 0 001 1h2.824l-.276 1.8H14.01a1 1 0 00-1 1V20.5h-2.387v-5.968a1 1 0 00-1-1H7v-1.798h2.576a1 1 0 001-.987l.04-4.284A2.934 2.934 0 0113.52 3.5z" fill="#999"/></symbol><symbol fill="none" viewBox="0 0 60 60" id="growth_icon" xmlns="http://www.w3.org/2000/svg"><path d="M30.046 48.387v5.806H10.72v4.842h48.318V48.387h-28.99zm-.969-28.062l2.902 2.9-4.333 3.375a48.23 48.23 0 01-9.38 5.72A48.14 48.14 0 012.44 36.56l-2.354.214v9.678l5.798-.896a53.841 53.841 0 0013.056-3.744 54.032 54.032 0 0013.292-8.158l5.544-4.628 2.896 2.907.97-12.584-12.566.976z" fill="#5697D2"/><path d="M20.163 37.265A57.45 57.45 0 0033.9 28.189l2.59-2.306-1.286-1.444-2.59 2.305a55.649 55.649 0 01-21.197 11.792l.548 1.855a58.837 58.837 0 008.198-3.126zM9.992 40.934l-.484-1.878c-.63.162-1.264.312-1.898.457l.415 1.89a57.02 57.02 0 001.967-.469zm-3.934.866l-.346-1.9a68.53 68.53 0 01-1.899.317l.283 1.913c.658-.098 1.31-.208 1.962-.33zm-5.198.717c.42-.04.848-.08 1.269-.133l-.22-1.924c-.409.047-.813.087-1.222.127L0 40.651l.173 1.93.687-.064z" fill="#717171"/><path d="M60 19.355v-10.1a2.904 2.904 0 00-2.198-2.819l-1.044-.26c.207-.398.34-.85.34-1.334V2.906C57.098 1.306 55.8 0 54.196 0A2.901 2.901 0 0051.3 2.906v1.936c0 .49.133.941.346 1.346l-1.05.248a2.904 2.904 0 00-2.198 2.82v10.099H50.4l.83 11.613h-2.209L46.581 33a84.399 84.399 0 01-20.446 12.624A84.456 84.456 0 013.56 51.917l-3.473.462V60H60V30.968h-2.827l.831-11.613H60zM53.24 2.906a.97.97 0 01.963-.97c.53 0 .97.433.97.97v1.936a.967.967 0 01-1.933 0V2.906zm-5.42 31.586l.583-.485V58.07h-7.73V39.848a88.3 88.3 0 007.147-5.356zm-9.08 23.573h-7.73V45.469a85.37 85.37 0 007.73-4.367v16.963zM26.907 47.398a67.07 67.07 0 002.17-.994v11.66h-7.732v-8.47a84.795 84.795 0 005.562-2.196zm-7.494 10.666h-7.731v-5.668a87.588 87.588 0 007.73-2.155v7.823zM2.019 54.072l1.8-.242c1.99-.266 3.97-.601 5.931-1.006v5.235H2.02v-3.987zm56.048 3.992h-7.73v-25.16h7.73v25.16zM53.17 30.969l-.963-13.549h-1.87V9.256c0-.445.3-.832.733-.942l2.285-.572h1.696l2.285.572a.97.97 0 01.732.942v8.163h-1.863l-.97 13.549H53.17z" fill="#717171"/><path d="M55.171 34.839H53.24v13.548h1.932V34.839zm0 15.484H53.24v1.935h1.932v-1.935zm0 3.87H53.24v1.936h1.932v-1.936zm-9.663-13.548h-1.933v7.742h1.933v-7.742zm0 9.678h-1.933v1.935h1.933v-1.935zm0 3.87h-1.933v1.936h1.933v-1.936zm-9.664-7.741h-1.932v1.935h1.932v-1.935zm0 3.871h-1.932v1.935h1.932v-1.935zm0 3.87h-1.932v1.936h1.932v-1.936zm-9.664-3.87h-1.932v1.935h1.933v-1.935zm0 3.87h-1.932v1.936h1.933v-1.936zm-9.663 0h-1.932v1.936h1.932v-1.936z" fill="#717171"/></symbol><symbol viewBox="0 0 30 30" id="hands" xmlns="http://www.w3.org/2000/svg"><path fill="#EE3E0E" d="M14.392 22.04c-.116.087-.237.168-.349.261-.258.219-.522.43-.763.667-.777.763-1.721.095-1.824-.647-.045-.317.038-.653.061-.969-.426.258-.945.412-1.449.059-.494-.35-.58-.865-.428-1.439-.166.092-.311.186-.466.256-.727.322-1.484-.16-1.538-.958-.06-.884.348-1.301 1.142-1.686.506-.245 1.301.277 1.419.898.048.25.008.517.008.776.164-.151.344-.325.531-.489.278-.244.558-.49.845-.724.266-.217.583-.304.922-.294.793.021 1.259.73.972 1.475-.044.112-.102.219-.118.359.111-.1.224-.197.334-.297.439-.4.962-.455 1.396-.148.476.336.679.953.455 1.461-.088.199-.236.373-.356.56-.054.082-.106.164-.16.243l-.634.636m.068-2.694c-.142.075-.295.135-.421.231-.182.141-.347.305-.514.464-.471.449-.955.886-1.404 1.357-.374.393-.357.916-.011 1.266.242.242.521.275.769.059a53.08 53.08 0 001.629-1.479c.224-.216.424-.464.59-.726.327-.52-.204-1.154-.638-1.172m-4.322.968c.124.252.206.506.357.709.201.27.479.271.726.045.339-.313.682-.623 1.003-.954.206-.21.403-.438.561-.688.253-.4.166-.892-.168-1.162-.208-.17-.43-.199-.604-.039-.522.479-1.043.957-1.538 1.465-.151.152-.216.391-.337.624m-2.059-1.16c0-.01-.004.049.001.104.043.495.495.763.941.556.345-.16.586-.422.726-.771.131-.331.029-.661-.259-.875-.364-.27-.483-.27-.853.005l-.18.13c-.263.195-.4.452-.376.851"/><path fill="#EE3E0E" d="M14.393 22.04l.632-.636c.473-.428.981-.353 1.325-.084.479.375.641.938.402 1.477-.294.667-.792 1.17-1.359 1.605-.27.205-.594.181-.899.074-.694-.24-.996-1.146-.588-1.756.155-.231.324-.452.487-.68m.472 2.085c.11-.044.252-.059.326-.137.36-.381.713-.771 1.045-1.174a.902.902 0 00.168-.455c.037-.342-.159-.575-.432-.745a.42.42 0 00-.564.073c-.395.429-.798.854-1.143 1.321-.305.419.068 1.066.6 1.117"/><path fill="#EE3E0E" d="M22.993 19.261c.177.423-.013.968-.425 1.277-.313.231-.68.325-1.049.297-.281-.021-.435.089-.564.298-.148.238-.285.483-.449.709-.326.453-.666.561-1.208.411-.418-.116-.446-.101-.579.313-.303.942-.883 1.271-1.859 1.052.078-.396.207-.521.59-.511.268.006.455-.107.607-.313a1.184 1.184 0 00-.033-1.467c-.486-.604-.979-1.2-1.474-1.797-.169-.205-.211-.436-.175-.7.232-.028.38.092.512.246.545.649 1.09 1.302 1.643 1.946.16.188.324.377.519.526.444.345.949.24 1.252-.233.291-.452.265-.935-.116-1.418-.373-.474-.77-.926-1.158-1.385-.183-.214-.383-.412-.553-.635a1.09 1.09 0 01-.174-.418c-.016-.076.047-.229.098-.24a.392.392 0 01.289.076c.102.079.162.205.25.305.604.707 1.205 1.42 1.826 2.115.165.188.381.34.596.473.352.219.648.166.931-.139.155-.17.289-.359.44-.533.075-.088.168-.164.263-.255"/><path fill="none" stroke="#EE3E0E" stroke-width=".25" stroke-miterlimit="10" d="M22.993 19.261c.177.423-.013.968-.425 1.277-.313.231-.68.325-1.049.297-.281-.021-.435.089-.564.298-.148.238-.285.483-.449.709-.326.453-.666.561-1.208.411-.418-.116-.446-.101-.579.313-.303.942-.883 1.271-1.859 1.052.078-.396.207-.521.59-.511.268.006.455-.107.607-.313a1.184 1.184 0 00-.033-1.467c-.486-.604-.979-1.2-1.474-1.797-.169-.205-.211-.436-.175-.7.232-.028.38.092.512.246.545.649 1.09 1.302 1.643 1.946.16.188.324.377.519.526.444.345.949.24 1.252-.233.291-.452.265-.935-.116-1.418-.373-.474-.77-.926-1.158-1.385-.183-.214-.383-.412-.553-.635a1.09 1.09 0 01-.174-.418c-.016-.076.047-.229.098-.24a.392.392 0 01.289.076c.102.079.162.205.25.305.604.707 1.205 1.42 1.826 2.115.165.188.381.34.596.473.352.219.648.166.931-.139.155-.17.289-.359.44-.533.075-.088.168-.164.263-.255z"/><path fill="#EE3E0E" d="M5.9 15.995c-.369.606-.824.462-1.301.212a5.371 5.371 0 00-.675-.303c-.566-.196-.913-.506-.609-1.387.341-.99.715-1.966 1.075-2.947.419-1.144.837-2.287 1.258-3.43.048-.132.098-.266.163-.388.176-.328.47-.472.828-.375.444.121.884.265 1.318.414.252.088.479.229.577.502.002.009.004.02.01.021.468.211.724.738 1.277.832.39.065.739-.021 1.07-.198.442-.237.859-.528 1.314-.735a4.88 4.88 0 011.192-.365c.461-.08.865.11 1.224.434a.53.53 0 01-.565.189c-.67-.154-1.272.024-1.849.346-.389.216-.76.467-1.158.66-.782.381-1.543.347-2.254-.193-.281-.216-.346-.195-.467.142l-1.832 5.139c-.068.193-.131.391-.209.58-.127.314-.049.572.182.811.441.456.876.919 1.311 1.38.202.215.181.285-.067.521-.197.188-.307.054-.418-.088-.372-.473-.739-.947-1.11-1.422-.081-.106-.166-.206-.285-.352m-2.136-.934c.062.066.128.183.226.229.316.158.646.291.969.435.311.139.398.112.568-.188.056-.101.091-.211.127-.32.291-.883.561-1.772.874-2.647.446-1.246.925-2.481 1.386-3.723.135-.363.114-.41-.254-.544-.294-.106-.598-.184-.895-.28-.395-.127-.412-.121-.554.268l-2.347 6.42c-.032.092-.053.187-.1.35"/><path fill="none" stroke="#EE3E0E" stroke-width=".25" stroke-miterlimit="10" d="M5.9 15.995c-.369.606-.824.462-1.301.212a5.371 5.371 0 00-.675-.303c-.566-.196-.913-.506-.609-1.387.341-.99.715-1.966 1.075-2.947.419-1.144.837-2.287 1.258-3.43.048-.132.098-.266.163-.388.176-.328.47-.472.828-.375.444.121.884.265 1.318.414.252.088.479.229.577.502.002.009.004.02.01.021.468.211.724.738 1.277.832.39.065.739-.021 1.07-.198.442-.237.859-.528 1.314-.735a4.88 4.88 0 011.192-.365c.461-.08.865.11 1.224.434a.53.53 0 01-.565.189c-.67-.154-1.272.024-1.849.346-.389.216-.76.467-1.158.66-.782.381-1.543.347-2.254-.193-.281-.216-.346-.195-.467.142l-1.832 5.139c-.068.193-.131.391-.209.58-.127.314-.049.572.182.811.441.456.876.919 1.311 1.38.202.215.181.285-.067.521-.197.188-.307.054-.418-.088-.372-.473-.739-.947-1.11-1.422-.081-.106-.166-.206-.285-.352zm-2.136-.934c.062.066.128.183.226.229.316.158.646.291.969.435.311.139.398.112.568-.188.056-.101.091-.211.127-.32.291-.883.561-1.772.874-2.647.446-1.246.925-2.481 1.386-3.723.135-.363.114-.41-.254-.544-.294-.106-.598-.184-.895-.28-.395-.127-.412-.121-.554.268l-2.347 6.42c-.032.092-.053.187-.1.35z"/><path fill="#EE3E0E" d="M27.713 14.65a2.523 2.523 0 00-.18-.457c-.764-1.543-1.528-3.082-2.29-4.625-.259-.523-.497-1.059-.761-1.58-.229-.457-.682-.67-1.082-.471-.514.256-1.008.557-1.5.854-.189.114-.277.31-.293.544a.495.495 0 01-.151.298c-.293.281-.647.302-.981.113a6.696 6.696 0 01-1.018-.69c-.688-.58-1.417-1.025-2.352-.935-.612-.095-1.129.129-1.626.425-1.77 1.053-3.37 2.336-4.964 3.629-.505.409-.609 1.196-.279 1.76a.962.962 0 00.657.479c.443.094.856-.002 1.24-.215.619-.343 1.227-.707 1.84-1.062.578-.332 1.157-.662 1.735-.996.192-.111.358-.087.506.082.065.073.138.141.202.217.563.668 1.113 1.347 1.688 2.004 1.387 1.591 2.783 3.17 4.178 4.752.222.252.425.248.672-.006.676-.698 1.355-1.393 2.018-2.104.184-.196.342-.344.631-.274.08.021.185-.011.263-.049.495-.236 1.002-.461 1.479-.732.355-.205.48-.552.368-.961m-3.078 1.525c-.478.501-.958.999-1.438 1.497l-.573.594c-.543-.608-1.082-1.199-1.604-1.802-1.32-1.526-2.635-3.058-3.953-4.587-.14-.162-.279-.324-.43-.477-.367-.369-.692-.435-1.164-.209-.326.158-.64.342-.953.522-.861.5-1.718 1.009-2.582 1.507-.14.082-.296.145-.453.188-.262.07-.545.105-.717-.16a.797.797 0 01-.018-.867.824.824 0 01.212-.236c1.437-1.131 2.84-2.309 4.411-3.256.113-.07.227-.137.333-.215.892-.654 2.368-.498 3.101.191.269.254.568.477.873.688.789.553 1.277.588 2.131.17.021.031.045.063.063.1.963 1.966 1.923 3.934 2.891 5.896.098.207-.011.33-.13.456m2.364-1.032c-.412.222-.834.424-1.255.627-.201.099-.327.035-.376-.192-.022-.11-.077-.216-.126-.319-.903-1.892-1.807-3.783-2.713-5.675a4.224 4.224 0 00-.256-.447c-.097-.149-.104-.268.072-.366.379-.213.752-.439 1.135-.646.268-.145.369-.104.506.178.578 1.191 1.148 2.385 1.731 3.574.445.908.905 1.811 1.356 2.715.044.087.07.182.121.313-.057.072-.108.191-.195.238"/><path fill="none" stroke="#EE3E0E" stroke-width=".25" stroke-miterlimit="10" d="M27.713 14.65a2.523 2.523 0 00-.18-.457c-.764-1.543-1.528-3.082-2.29-4.625-.259-.523-.497-1.059-.761-1.58-.229-.457-.682-.67-1.082-.471-.514.256-1.008.557-1.5.854-.189.114-.277.31-.293.544a.495.495 0 01-.151.298c-.293.281-.647.302-.981.113a6.696 6.696 0 01-1.018-.69c-.688-.58-1.417-1.025-2.352-.935-.612-.095-1.129.129-1.626.425-1.77 1.053-3.37 2.336-4.964 3.629-.505.409-.609 1.196-.279 1.76a.962.962 0 00.657.479c.443.094.856-.002 1.24-.215.619-.343 1.227-.707 1.84-1.062.578-.332 1.157-.662 1.735-.996.192-.111.358-.087.506.082.065.073.138.141.202.217.563.668 1.113 1.347 1.688 2.004 1.387 1.591 2.783 3.17 4.178 4.752.222.252.425.248.672-.006.676-.698 1.355-1.393 2.018-2.104.184-.196.342-.344.631-.274.08.021.185-.011.263-.049.495-.236 1.002-.461 1.479-.732.355-.205.48-.552.368-.961zm-3.078 1.525c-.478.501-.958.999-1.438 1.497l-.573.594c-.543-.608-1.082-1.199-1.604-1.802-1.32-1.526-2.635-3.058-3.953-4.587-.14-.162-.279-.324-.43-.477-.367-.369-.692-.435-1.164-.209-.326.158-.64.342-.953.522-.861.5-1.718 1.009-2.582 1.507-.14.082-.296.145-.453.188-.262.07-.545.105-.717-.16a.797.797 0 01-.018-.867.824.824 0 01.212-.236c1.437-1.131 2.84-2.309 4.411-3.256.113-.07.227-.137.333-.215.892-.654 2.368-.498 3.101.191.269.254.568.477.873.688.789.553 1.277.588 2.131.17.021.031.045.063.063.1.963 1.966 1.923 3.934 2.891 5.896.098.207-.011.33-.13.456zm2.364-1.032c-.412.222-.834.424-1.255.627-.201.099-.327.035-.376-.192-.022-.11-.077-.216-.126-.319-.903-1.892-1.807-3.783-2.713-5.675a4.224 4.224 0 00-.256-.447c-.097-.149-.104-.268.072-.366.379-.213.752-.439 1.135-.646.268-.145.369-.104.506.178.578 1.191 1.148 2.385 1.731 3.574.445.908.905 1.811 1.356 2.715.044.087.07.182.121.313-.057.072-.108.191-.195.238z"/><path fill="#FFF" d="M14.46 19.346c.434.021.965.652.638 1.172-.165.262-.366.51-.59.726-.53.507-1.078.996-1.629 1.479-.248.217-.526.185-.769-.059-.347-.35-.363-.873.011-1.266.449-.473.934-.908 1.403-1.357.168-.159.332-.323.515-.464.127-.097.279-.156.421-.231"/><path fill="none" stroke="#EE3E0E" stroke-width=".5" stroke-miterlimit="10" d="M14.46 19.346c.434.021.965.652.638 1.172-.165.262-.366.51-.59.726-.53.507-1.078.996-1.629 1.479-.248.217-.526.185-.769-.059-.347-.35-.363-.873.011-1.266.449-.473.934-.908 1.403-1.357.168-.159.332-.323.515-.464.127-.097.279-.156.421-.231z"/><path fill="#FFF" d="M10.138 20.313c.121-.23.186-.471.336-.625a40.906 40.906 0 011.538-1.463c.175-.16.397-.129.604.039.334.271.42.76.168 1.163a4.283 4.283 0 01-.561.688c-.321.329-.663.642-1.003.952-.246.229-.524.227-.726-.043-.15-.204-.232-.46-.356-.711"/><path fill="none" stroke="#EE3E0E" stroke-width=".5" stroke-miterlimit="10" d="M10.138 20.313c.121-.23.186-.471.336-.625a40.906 40.906 0 011.538-1.463c.175-.16.397-.129.604.039.334.271.42.76.168 1.163a4.283 4.283 0 01-.561.688c-.321.329-.663.642-1.003.952-.246.229-.524.227-.726-.043-.15-.204-.232-.46-.356-.711z"/><path fill="#FFF" d="M8.079 19.154c-.023-.399.113-.656.377-.853l.18-.13c.369-.273.488-.273.853-.005.288.214.39.544.259.875a1.39 1.39 0 01-.726.771c-.446.207-.898-.06-.941-.555-.006-.054-.002-.112-.002-.103"/><path fill="none" stroke="#EE3E0E" stroke-width=".5" stroke-miterlimit="10" d="M8.079 19.154c-.023-.399.113-.656.377-.853l.18-.13c.369-.273.488-.273.853-.005.288.214.39.544.259.875a1.39 1.39 0 01-.726.771c-.446.207-.898-.06-.941-.555-.006-.054-.002-.112-.002-.103z"/><path fill="#FFF" d="M14.865 24.125c-.531-.051-.904-.698-.6-1.115.345-.468.748-.894 1.143-1.322a.42.42 0 01.564-.072c.272.17.469.402.432.744a.902.902 0 01-.168.455c-.333.404-.686.795-1.045 1.174-.074.077-.216.092-.326.136"/><path fill="none" stroke="#EE3E0E" stroke-width=".5" stroke-miterlimit="10" d="M14.865 24.125c-.531-.051-.904-.698-.6-1.115.345-.468.748-.894 1.143-1.322a.42.42 0 01.564-.072c.272.17.469.402.432.744a.902.902 0 01-.168.455c-.333.404-.686.795-1.045 1.174-.074.077-.216.092-.326.136z"/></symbol><symbol viewBox="0 0 30 30" id="hello" xmlns="http://www.w3.org/2000/svg"><path fill="#EE3E0E" d="M27.787 15.39c-.441.08-.887.158-1.327.242-1.073.199-2.149.402-3.222.604-.014.002-.025 0-.059.003l-.238-1.255 4.606-.863.213 1.122c.005.023.017.046.025.07l.002.077zm-6.699-2.722l-.77-1.024c1.826-1.373 3.646-2.739 5.475-4.11l.771 1.024c-1.826 1.369-3.645 2.735-5.476 4.11M18.234 9.27l-1.185-.5c.646-1.522 1.283-3.034 1.929-4.562.395.166.78.33 1.182.498-.64 1.522-1.279 3.035-1.926 4.564M23.9 20.111c-.043-.385-.219-.709-.448-1.01L15.13 8.208c-.362-.473-.71-.961-1.098-1.412-.457-.531-1.044-.74-1.736-.531-.474.142-.789.48-1.037.894-2.739 4.567-5.477 9.135-8.22 13.699-.261.437-.439.892-.479 1.398-.06.781.092 1.512.56 2.155.226.313.452.626.694.926.733.901 1.694 1.278 2.836 1.151.392-.043.771-.191 1.156-.295.221-.061.439-.127.664-.191.135.258.256.51.396.75.099.17.2.346.339.482.713.699 1.581.924 2.536.699 1.79-.42 3.569-.877 5.354-1.32.482-.121.889-.37 1.16-.795.387-.604.374-1.231.07-1.862-.113-.235-.247-.461-.379-.703l.146-.046 4.223-1.225c.301-.088.604-.168.865-.353.531-.367.791-.865.72-1.518m-7.061 5.243c-.217.065-.438.114-.659.168-1.556.388-3.111.772-4.666 1.158a1.583 1.583 0 01-.912-.037c-.278-.095-.504-.252-.629-.531-.07-.154-.158-.305-.244-.473.418-.123.82-.24 1.224-.356 1.868-.542 3.735-1.082 5.604-1.63.105-.029.148-.008.196.088.12.236.252.468.379.699.022.043.046.084.065.127.16.363.024.673-.358.787m5.617-4.781c-.093.052-.194.09-.296.118-1.977.576-3.95 1.148-5.926 1.723L6.73 25.173c-.679.196-1.487-.075-1.912-.637l-.595-.793a2.347 2.347 0 01-.142-.209c-.18-.298-.252-.589-.252-.976a1.768 1.768 0 01.266-.965c2.748-4.576 5.494-9.154 8.241-13.732.048-.082.097-.163.157-.234.16-.189.341-.203.523-.036.064.06.123.132.178.202 2.734 3.58 5.47 7.16 8.203 10.74.348.452.694.905 1.039 1.36.06.078.114.162.153.25.087.189.043.33-.133.43"/></symbol><symbol fill="none" viewBox="0 0 60 60" id="house_icon" xmlns="http://www.w3.org/2000/svg"><g clip-path="url(#iclip0_51_3902)"><path d="M46.453 10.637h-7.741v5.807h7.74v-5.807zM30.964 42.579h-7.74v7.742h7.74V42.58zm13.554 5.808h-7.741v7.743h7.74v-7.743zm9.676 0h-7.741v7.743h7.741v-7.743z" fill="#FF6927"/><path d="M60 39.673l-4.047-20.328h-3.7v-5.972l2.182 1.56a2.858 2.858 0 001.688.54 2.91 2.91 0 002.365-1.217c.453-.63.63-1.4.5-2.165a2.884 2.884 0 00-1.176-1.883L44.265.53a2.947 2.947 0 00-3.371 0l-13.547 9.678a2.862 2.862 0 00-1.177 1.883c-.13.765.047 1.535.5 2.165.9 1.253 2.794 1.57 4.047.67l2.183-1.559v5.978h-9.3l-1.347-1.2c-1.065-.947-2.8-.947-3.86 0L.977 33.63a2.871 2.871 0 00-.97 2 2.872 2.872 0 00.729 2.101 2.896 2.896 0 004.1.241l.97-.864V60h52.26V46.45H60v-6.777zM54.365 21.28l3.7 18.486v.87H34.84v-3.535l.97.865c1.154 1.023 3.077.912 4.1-.242a2.895 2.895 0 00.73-2.1 2.882 2.882 0 00-.97-2l-4.095-3.63H52.26V21.28h2.106zm-9.848 6.778h-3.87v-7.743h3.87v7.743zM29.594 13.356c-.418.3-1.053.194-1.347-.224a.933.933 0 01-.165-.724.932.932 0 01.394-.63l13.541-9.672a.982.982 0 011.124 0l13.547 9.685a.963.963 0 01.23 1.347c-.3.418-.93.53-1.353.223L42.582 4.083l-12.988 9.273zM42.582 6.46l7.742 5.53v16.07h-3.871v-9.68h-7.741v9.679H34.84V11.99l7.741-5.53zm-9.676 14.82v6.331l-7.124-6.33h7.124zM3.546 36.526c-.388.341-1.023.306-1.364-.082a.956.956 0 01-.241-.7.96.96 0 01.323-.665l17.418-15.486a.96.96 0 011.288 0l17.418 15.486a.96.96 0 01.324.665.947.947 0 01-.242.7c-.34.382-.982.423-1.364.076L20.323 21.61 3.547 36.525zM20.324 24.2l12.583 11.185v3.318H25.16v-7.737h-9.677v7.743H7.741V35.39L20.323 24.2zm2.9 14.509h-5.806V32.9h5.806v5.807zM7.741 40.644H32.9v17.42H21.288V46.452H9.676v11.614H7.741V40.644zm11.612 17.42H11.61v-9.678h7.742v9.679zm36.776 0H34.841V46.452h21.288v11.614zm-21.288-13.55V42.58h23.224v1.936H34.84z" fill="#717171"/></g><defs><clipPath id="iclip0_51_3902"><path fill="#fff" d="M0 0h60v60H0z"/></clipPath></defs></symbol><symbol fill="none" viewBox="0 0 24 24" id="instagram-icon" xmlns="http://www.w3.org/2000/svg"><path fill-rule="evenodd" clip-rule="evenodd" d="M2 7a5 5 0 015-5h10a5 5 0 015 5v10a5 5 0 01-5 5H7a5 5 0 01-5-5V7zm5-3a3 3 0 00-3 3v10a3 3 0 003 3h10a3 3 0 003-3V7a3 3 0 00-3-3H7z" fill="#999"/><path fill-rule="evenodd" clip-rule="evenodd" d="M4 7a3 3 0 013-3h10a3 3 0 013 3v10a3 3 0 01-3 3H7a3 3 0 01-3-3V7zm3 5a5 5 0 1110 0 5 5 0 01-10 0zm11.5-5.5a1 1 0 11-2 0 1 1 0 012 0z" fill="#999"/><path d="M9 12a3 3 0 116 0 3 3 0 01-6 0z" fill="#999"/></symbol><symbol fill="none" viewBox="0 0 16 16" id="phone-icon" xmlns="http://www.w3.org/2000/svg"><path d="M8.732 1v.965a5.31 5.31 0 015.304 5.305H15A6.276 6.276 0 008.732 1zm-4.99 1.45c-.253 0-.506.082-.712.248l-.023.02L1.49 4.281l.032-.03a1.522 1.522 0 00-.425 1.689c.407 1.172 1.442 3.438 3.485 5.48 2.048 2.05 4.337 3.042 5.47 3.484l.01.004.012.004a1.73 1.73 0 001.671-.332l.015-.012 1.506-1.508c.4-.4.4-1.101 0-1.5l-1.975-1.98a1.09 1.09 0 00-1.503 0l-.957.958a7.719 7.719 0 01-1.986-1.352c-.79-.754-1.194-1.625-1.34-1.962l.965-.965c.422-.423.446-1.15-.041-1.539l.044.041-1.997-2.045-.023-.019a1.132 1.132 0 00-.712-.248zm4.99.48v.964a3.38 3.38 0 013.375 3.376h.965a4.345 4.345 0 00-4.34-4.34zm-4.989.482c.035 0 .069.013.102.038l1.96 2.008.024.02c-.006-.005.019.041-.04.1L4.363 7.005l.11.291s.544 1.48 1.707 2.59c1.144 1.09 2.554 1.687 2.554 1.687l.3.128 1.436-1.437c.082-.08.059-.08.14 0l1.976 1.979c.081.082.081.054 0 .137l-1.47 1.47c-.223.19-.454.24-.732.147-1.09-.426-3.224-1.36-5.119-3.258-1.908-1.907-2.897-4.073-3.26-5.122l-.002-.006L2 5.604a.596.596 0 01.152-.62l.016-.015L3.64 3.45a.17.17 0 01.103-.038zm4.99 1.446v.965c.797 0 1.446.65 1.446 1.447h.964a2.414 2.414 0 00-2.41-2.412z" fill="#FF6927" stroke="#FF6927" stroke-width=".4"/></symbol><symbol fill="none" viewBox="0 0 89 62" id="quotes-icon" xmlns="http://www.w3.org/2000/svg"><path opacity=".4" d="M69.462 39.455a19.255 19.255 0 01-10.806-3.325 19.67 19.67 0 01-7.163-8.853 19.989 19.989 0 01-1.107-11.398A19.816 19.816 0 0155.71 5.778 19.366 19.366 0 0165.667.379a19.195 19.195 0 0111.238 1.123 19.512 19.512 0 018.728 7.265 19.928 19.928 0 013.278 10.96L89 22.546c0 10.464-4.098 20.499-11.393 27.898C70.312 57.844 60.417 62 50.1 62V50.727a27.28 27.28 0 0010.64-2.13 27.595 27.595 0 009.01-6.121c1-1.014 1.924-2.103 2.762-3.258-.995.158-2.012.242-3.046.242l-.005-.005zm-50.013 0A19.255 19.255 0 018.644 36.13a19.67 19.67 0 01-7.164-8.853A19.99 19.99 0 01.374 15.879 19.816 19.816 0 015.697 5.778 19.366 19.366 0 0115.655.379a19.195 19.195 0 0111.237 1.123 19.512 19.512 0 018.729 7.265 19.929 19.929 0 013.278 10.96l.088 2.819c0 10.464-4.098 20.499-11.393 27.898C20.3 57.844 10.405 62 .09 62V50.727a27.28 27.28 0 0010.64-2.13 27.596 27.596 0 009.01-6.121c1-1.014 1.923-2.103 2.761-3.258-.995.158-2.012.242-3.05.242v-.005z" fill="#fff"/></symbol><symbol fill="none" viewBox="0 0 60 60" id="shield_icon" xmlns="http://www.w3.org/2000/svg"><path d="M42.262 25.34c0 7.23-5.888 13.098-13.144 13.098-7.257 0-13.145-5.868-13.145-13.098 0-7.231 5.888-13.099 13.145-13.099 7.256 0 13.144 5.868 13.144 13.099z" fill="#92D23F"/><path d="M48.612 3.815A51.562 51.562 0 0129.456.138L29.103 0l-.354.138A51.562 51.562 0 019.593 3.815H7.518V23.47H2.813A2.81 2.81 0 000 26.273v15.902a2.81 2.81 0 002.813 2.803h8.456c2.214 3.508 5.289 6.42 8.948 8.395l8.886 4.841 8.886-4.825a24.282 24.282 0 0012.714-21.34V3.815h-2.09zM1.876 42.175V26.273a.93.93 0 01.937-.934h8.456a.93.93 0 01.938.934v15.902a.93.93 0 01-.938.934H2.813a.94.94 0 01-.937-.934zm12.206-14.048c3.137-.169 5.627-2.773 5.627-5.929v-4.826a2.348 2.348 0 012.352-2.344 2.348 2.348 0 012.353 2.344v5.883a3.013 3.013 0 003.013 3.003h6.887c1.8 0 3.26 1.455 3.26 3.232v10.356a3.255 3.255 0 01-3.26 3.248H20.478a2.21 2.21 0 01-1.845-.98 4.132 4.132 0 00-3.413-1.823h-1.138V28.127zm34.745 3.922c0 8.21-4.504 15.763-11.73 19.7l-7.979 4.336-7.979-4.335a22.426 22.426 0 01-8.056-7.43 2.81 2.81 0 001-1.961 20.422 20.422 0 007.963 7.736l7.087 3.845 7.088-3.845a20.532 20.532 0 0010.761-18.062V17.847h-1.875v14.186a18.656 18.656 0 01-9.778 16.407l-6.18 3.355-6.18-3.355a18.667 18.667 0 01-6.534-5.928c.261.168.492.367.676.643a4.132 4.132 0 003.413 1.823h13.837c2.828 0 5.134-2.298 5.134-5.116V29.505c0-2.818-2.306-5.116-5.134-5.116h-6.888c-.63 0-1.138-.506-1.138-1.134v-5.883a4.218 4.218 0 00-4.227-4.213 4.218 4.218 0 00-4.228 4.213v4.826c0 2.13-1.66 3.876-3.767 4.03a2.776 2.776 0 00-.938-2.038V9.314a56.844 56.844 0 0015.958-3.309 57.07 57.07 0 0015.958 3.31v1.041h1.876V7.537l-.907-.03a55.493 55.493 0 01-16.62-3.355l-.322-.123-.338.107a55.043 55.043 0 01-16.62 3.37l-.891.031v15.917H9.393V5.684h.216a53.454 53.454 0 0019.509-3.677 53.4 53.4 0 0019.51 3.677h.215l-.016 26.365z" fill="#717171"/><path d="M46.952 14.11h-1.876v1.869h1.876v-1.87zm-36.62 25.262h-6.58v1.87h6.58v-1.87z" fill="#717171"/><path d="M42.156 25.4c0 7.249-5.873 13.13-13.111 13.13S15.933 32.65 15.933 25.4c0-7.248 5.874-13.13 13.112-13.13s13.111 5.882 13.111 13.13z" fill="#92D23F"/><path d="M48.49 3.824A51.21 51.21 0 0129.382.138L29.03 0l-.352.138A51.21 51.21 0 019.569 3.824H7.5v19.703H2.806A2.81 2.81 0 000 26.337v15.94a2.81 2.81 0 002.806 2.81h8.435c2.208 3.517 5.275 6.435 8.925 8.416l8.863 4.853 8.864-4.837a24.36 24.36 0 0012.682-21.392V3.824H48.49zM1.87 42.278v-15.94a.93.93 0 01.936-.938h8.435a.93.93 0 01.935.937v15.94a.93.93 0 01-.935.937H2.806a.94.94 0 01-.935-.936zm12.177-14.083c3.128-.169 5.613-2.78 5.613-5.943v-4.837c0-1.29 1.043-2.35 2.346-2.35a2.348 2.348 0 012.346 2.35v5.897c0 1.658 1.35 3.01 3.006 3.01h6.87a3.252 3.252 0 013.251 3.24v10.381a3.255 3.255 0 01-3.25 3.256H20.425a2.202 2.202 0 01-1.84-.983 4.116 4.116 0 00-3.404-1.827h-1.135V28.195zm34.657 3.932a22.52 22.52 0 01-11.7 19.749l-7.96 4.346-7.958-4.346a22.411 22.411 0 01-8.036-7.448 2.822 2.822 0 00.997-1.966 20.415 20.415 0 007.944 7.755l7.07 3.855 7.069-3.855a20.597 20.597 0 0010.734-18.106v-14.22h-1.87v14.22c0 6.865-3.742 13.177-9.754 16.448l-6.165 3.363-6.164-3.363a18.654 18.654 0 01-6.518-5.944c.261.17.491.369.675.645a4.116 4.116 0 003.404 1.828h13.802c2.822 0 5.122-2.304 5.122-5.13v-10.38c0-2.826-2.3-5.13-5.122-5.13h-6.87a1.133 1.133 0 01-1.135-1.136v-5.897a4.218 4.218 0 10-8.434 0v4.837a4.054 4.054 0 01-3.757 4.039 2.789 2.789 0 00-.936-2.043V9.338A56.459 56.459 0 0029.06 6.02a56.683 56.683 0 0015.918 3.317v1.044h1.87V7.556l-.904-.031a55.116 55.116 0 01-16.577-3.363l-.322-.123-.338.107A54.668 54.668 0 0112.13 7.525l-.89.03v15.956H9.37V5.697h.214a53.093 53.093 0 0019.46-3.685 53.033 53.033 0 0019.461 3.685h.215l-.015 26.43z" fill="#717171"/><path d="M46.834 14.144h-1.871v1.874h1.87v-1.874zM10.305 39.467H3.742v1.874h6.563v-1.874z" fill="#717171"/></symbol><symbol fill="none" viewBox="0 0 60 60" id="tag_icon" xmlns="http://www.w3.org/2000/svg"><g clip-path="url(#nclip0_51_3832)"><path d="M24.478 46.85L12.565 34.842 31.207 16.05l11.92 12.017-18.65 18.783z" fill="#0DC7C2"/><path d="M53.28 46.45c-1.588 0-2.878 1.3-2.878 2.9 0 1.6 1.29 2.9 2.877 2.9 1.587 0 2.877-1.3 2.877-2.9 0-1.6-1.29-2.9-2.877-2.9zm0 3.875a.964.964 0 01-.96-.967c0-.533.43-.966.96-.966.528 0 .958.433.958.966 0 .534-.43.967-.959.967zm-11.516-7.742c-1.588 0-2.877 1.3-2.877 2.9 0 1.6 1.29 2.9 2.877 2.9 1.587 0 2.876-1.3 2.876-2.9 0-1.6-1.29-2.9-2.877-2.9zm0 3.867a.963.963 0 01-.96-.967c0-.533.43-.966.96-.966.529 0 .958.433.958.966 0 .534-.43.967-.959.967zm2.942 7.459l3.845-13.559 1.843.534-3.844 13.558-1.843-.533zm-2.265-19.35l6.44-6.492-6.44-6.492-1.355 1.367 5.084 5.125-5.084 5.125 1.355 1.367zM31.199 12.983l5.084 5.125 1.355-1.366-6.44-6.492-6.44 6.492 1.357 1.366 5.084-5.125zM13.243 28.35l-6.44 6.492 6.44 6.491 1.356-1.366-5.084-5.125 5.084-5.125-1.356-1.367zm11.235 21.575L19.394 44.8l-1.356 1.367 6.44 6.491 6.44-6.491-1.356-1.367-5.084 5.125zm5.076-26.983l1.355-1.367 6.721 6.775-1.355 1.367-6.721-6.775zm-2.877 2.9l1.355-1.367 5.762 5.809-1.355 1.366-5.762-5.808zm-2.885 2.908l1.355-1.366 5.762 5.808-1.355 1.367-5.762-5.809zm-2.877 2.9l1.355-1.366 5.762 5.808-1.355 1.367-5.762-5.809zm-2.877 2.9l1.356-1.366 6.72 6.775-1.355 1.366-6.721-6.775z" fill="#717171"/><path d="M48.807 34.908l3.513-3.541V10.242l-3.439-3.467h-1.81A16.87 16.87 0 0044.707 3.8C41.813.883 37.704-1.175 35.786.75c-1.323 1.333-.76 3.708.67 6.017h-8.532L.083 34.842l24.395 24.591 10.63-10.716C35.755 55.05 41.079 60 47.519 60 54.394 60 60 54.358 60 47.417c0-6.492-4.91-11.859-11.193-12.509zM37.142 2.125c.629-.642 3.431.25 6.2 3.05.513.517.976 1.058 1.39 1.6h-5.944c-1.654-2.2-2.15-4.133-1.646-4.65zM2.794 34.842L28.71 8.717h9.152c.297.358.62.708.942 1.033 1.29 1.3 2.687 2.333 4.034 3a2.886 2.886 0 00-.124.8c0 1.6 1.29 2.9 2.877 2.9 1.587 0 2.877-1.3 2.877-2.9 0-1.6-1.29-2.9-2.877-2.9a2.85 2.85 0 00-1.62.5c-1.116-.5-2.331-1.367-3.464-2.442h7.564l2.315 2.334v19.525l-4.332 4.366c-5.72.675-10.276 5.259-10.937 11.025L24.477 56.7 2.795 34.842zM44.64 13.55c0-.533.43-.967.96-.967.528 0 .958.434.958.967 0 .533-.43.967-.959.967a.964.964 0 01-.959-.967zm2.877 44.517c-5.82 0-10.556-4.775-10.556-10.642 0-5.867 4.736-10.642 10.556-10.642 5.82 0 10.557 4.775 10.557 10.642 0 5.867-4.729 10.642-10.557 10.642z" fill="#717171"/></g><defs><clipPath id="nclip0_51_3832"><path fill="#fff" d="M0 0h60v60H0z"/></clipPath></defs></symbol><symbol fill="none" viewBox="0 0 60 60" id="team_icon" xmlns="http://www.w3.org/2000/svg"><path d="M30 13.547c-6.406 0-11.612 5.212-11.612 11.612v14.118a9.71 9.71 0 014.335-1.836l1.912-.294a2.904 2.904 0 002.465-2.87v-.1h.018a6.758 6.758 0 01-3.889-6.118v-3.87l1.418-.283a8.451 8.451 0 005.359-3.588 8.437 8.437 0 005.359 3.588l1.417.282v4.071a6.57 6.57 0 01-3.882 5.994h.012v.024a2.904 2.904 0 002.464 2.87l1.912.294a9.58 9.58 0 014.336 1.836V25.159c-.012-6.4-5.218-11.612-11.624-11.612z" fill="#27AE60"/><path d="M33.665 29.67l.1-.205-1.73-.865-.1.206A2.158 2.158 0 0130 30a2.158 2.158 0 01-1.935-1.194l-.1-.206-1.73.865.1.206A4.074 4.074 0 0030 31.936c1.565 0 2.97-.871 3.665-2.265zm-7.483-17.547c.094.689.37 1.318.77 1.848A11.578 11.578 0 0130 13.553a1.94 1.94 0 01-1.935-1.935h3.87A1.94 1.94 0 0130 13.553c1.059 0 2.076.153 3.047.418.4-.53.677-1.16.77-1.848a3.852 3.852 0 011.96 2.983 11.74 11.74 0 011.958 1.423v-1.047c0-2.488-1.582-4.611-3.788-5.435A5.785 5.785 0 0035.8 5.806C35.806 2.606 33.2 0 30 0a5.814 5.814 0 00-5.806 5.806c0 1.67.718 3.182 1.853 4.241-2.206.824-3.788 2.947-3.788 5.435v1.047a11.72 11.72 0 011.959-1.423 3.873 3.873 0 011.964-2.982zM30 1.935c1.424 0 2.659.783 3.335 1.936h-6.664c.67-1.153 1.905-1.936 3.329-1.936zm3.87 3.87A3.874 3.874 0 0130 9.677a3.874 3.874 0 01-3.87-3.87h7.74z" fill="#717171"/><path d="M56.953 39.812a7.726 7.726 0 00-3.082-1.377l-2.76-.553-.311-1.247a5.855 5.855 0 002.23-3.217l.493-.471a8.383 8.383 0 002.606-6.088 7.45 7.45 0 00-1.935-5.012v-.553c0-2.488-1.582-4.612-3.788-5.435a5.807 5.807 0 001.535-2.37c2.359-.324 4.188-2.33 4.188-4.771a4.845 4.845 0 00-4.84-4.842 4.8 4.8 0 00-3.924 2.018c-.3-.047-.6-.076-.912-.076a5.814 5.814 0 00-5.806 5.806c0 1.67.718 3.176 1.853 4.24a5.803 5.803 0 00-3.041 2.595 11.396 11.396 0 01.682 1.076c.206.37.394.747.559 1.136a3.82 3.82 0 011.93-2.736c.093.742.4 1.412.858 1.96a7.66 7.66 0 00-2.476 1.61c.123.377.235.76.317 1.154 0 .006 0 .006.006.012.088.394.153.794.2 1.2a5.575 5.575 0 014.677-2.565h2.417c3.071 0 5.565 2.5 5.565 5.565 0 .7-.112 1.388-.33 2.047a6.71 6.71 0 01-.635 1.347v-.512a2.91 2.91 0 00-2.494-2.87l-2.24-.318a2.386 2.386 0 01-2.042-2.353h-1.935c0 .482.082.953.235 1.394a4.833 4.833 0 00-3.135 4.53v3.105l.2.188a5.816 5.816 0 002.223 3.23l-.312 1.235-1.852.37a10.68 10.68 0 00-4.448-1.758l-1.911-.294a1.924 1.924 0 01-1.565-1.394 7.534 7.534 0 003.794-6.536v-4.864l-2.194-.441a7.396 7.396 0 01-4.741-3.177L30 18.576l-.806 1.206a7.417 7.417 0 01-4.741 3.177l-2.194.435v4.665c0 2.83 1.535 5.3 3.817 6.653a1.913 1.913 0 01-1.588 1.482l-1.912.294a10.65 10.65 0 00-4.447 1.759l-1.853-.37-.311-1.248a5.855 5.855 0 002.23-3.217l.2-.188v-3.106a4.832 4.832 0 00-3.136-4.53c.153-.441.235-.912.235-1.394H13.56a2.396 2.396 0 01-2.041 2.359l-2.242.323a2.91 2.91 0 00-2.494 2.871v.512a6.35 6.35 0 01-.965-3.394v-4.6c0-.536.436-.97.971-.97h7.741c1.612 0 3.118.823 4.012 2.152.118-.782.312-1.535.57-2.253a6.884 6.884 0 00-2.452-1.47c.382-.518.635-1.13.723-1.8 1 .558 1.73 1.547 1.93 2.74a11.422 11.422 0 01.576-1.164c.206-.365.43-.712.67-1.053a5.78 5.78 0 00-3.04-2.594 5.782 5.782 0 001.853-4.235c0-3.2-2.606-5.806-5.806-5.806a5.814 5.814 0 00-5.806 5.806 5.8 5.8 0 001.853 4.24 5.811 5.811 0 00-3.465 3.583 2.906 2.906 0 00-2.259 2.824v4.6c0 .906.147 1.8.43 2.659a8.466 8.466 0 002.176 3.429l.494.47a5.797 5.797 0 002.23 3.218l-.312 1.247-2.759.553a7.728 7.728 0 00-3.082 1.377A7.609 7.609 0 000 45.906V60h60V45.906a7.661 7.661 0 00-3.047-6.094zM51.288 5.806c1.6 0 2.906 1.3 2.906 2.906 0 1.253-.8 2.312-1.947 2.717a5.804 5.804 0 00-2.923-4.853 2.92 2.92 0 011.964-.77zM46.453 7.74c1.423 0 2.659.783 3.335 1.935h-6.67a3.854 3.854 0 013.335-1.935zm0 11.612a1.94 1.94 0 01-1.935-1.935h3.87c0 1.07-.87 1.935-1.935 1.935zm0-3.87a3.873 3.873 0 01-3.87-3.871h7.74a3.874 3.874 0 01-3.87 3.87zm3.282 3.964c.283-.453.465-.965.536-1.518.87.489 1.523 1.3 1.811 2.277a7.376 7.376 0 00-2.347-.759zm-36.188-.094a1.94 1.94 0 01-1.935-1.935h3.87c0 1.07-.864 1.935-1.935 1.935zm0-11.612c1.424 0 2.659.783 3.335 1.935h-6.664c.67-1.152 1.905-1.935 3.33-1.935zm3.87 3.87a3.873 3.873 0 01-3.87 3.871 3.874 3.874 0 01-3.87-3.87h7.74zm-7.688 6.3c.065.524.236 1.007.489 1.442H8.27a3.9 3.9 0 011.458-1.441zM39.794 53.6c.177-.441.318-.888.435-1.341h2.348v5.806h-3.871v-1.747l1.088-2.718zm4.724-1.341c.764 0 1.423-.447 1.735-1.094l.2.37v6.53h-1.935v-5.806zm2.9-10.53l.753.377-.483 1.447h-1.817c-.1-.3-.218-.588-.342-.877l1.889-.947zm0 7.518l-.97-1.794v-.441c0-.518-.048-1.03-.119-1.53h1.453l.8 1.595-1.164 2.17zm2.294-4.253l-.277-.553.488-1.465.689.348-.9 1.67zm2.635-4.894l-.818 1.518-2.182-1.095 1.182-.788 1.818.365zm-4.93-.618l-1.8-1.2.195-.77c.512.147 1.047.23 1.606.23.559 0 1.094-.095 1.605-.248l.195.782-1.8 1.206zm-3.87-7.547v-1.817c0-1.336.906-2.494 2.2-2.818l.077-.018a4.29 4.29 0 002.394 1.183l2.24.317c.477.065.83.477.83.96v2.193a3.874 3.874 0 01-3.87 3.87 3.874 3.874 0 01-3.87-3.87zm.765 7.8l1.182.788-.906.453c-.27-.394-.565-.764-.888-1.117l.612-.124zm.206 7.277v3.312h-3.924a11.803 11.803 0 00-.559-4.888l-.406-1.224-1.835.611.406 1.224a10.05 10.05 0 01.512 3.141c0 1.27-.241 2.512-.712 3.694l-1.224 3.065v2.124h-5.805V49.6l6.04-11.218.124.018a8.67 8.67 0 017.383 8.612zm-14.518.3l-2.03-3.765h4.053L30 47.312zm-5.806-19.247v-3.077l.641-.13A9.348 9.348 0 0030 21.907a9.279 9.279 0 005.165 2.953l.64.13v3.276c0 3.088-2.51 5.606-5.6 5.606h-.17c-3.223 0-5.84-2.606-5.84-5.806zm3.67 7.43c.689.2 1.418.31 2.171.31h.17c.677 0 1.324-.1 1.948-.264a3.834 3.834 0 002.835 2.512l-1.917 3.559h-6.142l-1.917-3.56a3.825 3.825 0 002.853-2.558zm-4.993 2.91l.123-.017L29.035 49.6v8.465H23.23V55.94L22 52.882a9.897 9.897 0 01-.712-3.694c0-1.07.17-2.13.512-3.141l.406-1.223-1.835-.612-.412 1.223a11.797 11.797 0 00-.606 3.753c0 .383.018.759.053 1.136h-3.924v-3.312a8.66 8.66 0 017.389-8.606zm-8.747 5.142h-1.818l-.482-1.447.752-.377 1.889.942a16.09 16.09 0 00-.341.882zm-4.042-.57l.489 1.464-.277.553-.9-1.67.688-.347zm2.13 2.505h1.453c-.07.5-.118 1.006-.118 1.53v.44l-.97 1.795-1.165-2.17.8-1.595zm1.335 6.053l.2-.37c.312.647.97 1.094 1.735 1.094v5.806h-1.935v-6.53zm3.87.724h2.348c.123.453.258.9.435 1.341l1.088 2.718v1.747h-3.87v-5.806zm-1.123-12.4a10.09 10.09 0 00-.882 1.117l-.906-.453 1.182-.788.606.124zM8.712 29.74a.98.98 0 01.83-.959l2.24-.323a4.328 4.328 0 002.395-1.183l.082.024a2.901 2.901 0 012.2 2.818v1.817a3.874 3.874 0 01-3.87 3.87 3.874 3.874 0 01-3.871-3.87V29.74h-.006zm3.87 8c.56 0 1.095-.094 1.606-.247l.194.782-1.8 1.2-1.8-1.2.194-.782a5.588 5.588 0 001.606.247zm-3.106 1.994l1.183.788-2.183 1.095L7.66 40.1l1.817-.365zm-7.54 6.17c0-1.782.852-3.482 2.276-4.552.453-.341.959-.6 1.494-.794l5.906 10.976v6.53H5.806V47.418H3.87v10.647H1.935v-12.16zm56.129 12.16h-1.936V47.418h-1.935v10.647h-5.806v-6.53l5.906-10.97a5.873 5.873 0 011.494.794 5.725 5.725 0 012.277 4.553v12.153z" fill="#717171"/></symbol><symbol fill="none" viewBox="0 0 40 40" id="telegram_icon" xmlns="http://www.w3.org/2000/svg"><path d="M20 40c11.046 0 20-8.954 20-20S31.046 0 20 0 0 8.954 0 20s8.954 20 20 20z" fill="#29AAEC"/><path d="M7.41 19.638c-.324.152-.515.39-.581.6-.058.2-.048.42.066.715.076.19.248.342.515.457 2.933 1.104 4.57 1.647 4.933 1.647a2.51 2.51 0 001.086-.257l2.504-1.619 3.838-2.457L22.83 16.8c.41-.257.676-.41.8-.457.304-.105.428-.048.514 0 .086.047.143.21 0 .457a4.762 4.762 0 01-.4.533l-1.048 1-1.38 1.324-1.486 1.372-1.248 1.257-.82.78-1.056 1.01a.865.865 0 00-.229.543c-.01.2.048.4.172.6l.266.324 1.02.686 1.837 1.343c3 2.114 4.572 3.228 4.724 3.333.153.105.324.18.524.219.276.01.562-.067.848-.22.285-.151.514-.561.666-1.228 2.153-10.162 3.258-15.38 3.324-15.676.048-.238.22-.78.143-1.238-.057-.381-.343-.686-.476-.8-.134-.114-.524-.257-.867-.257-.114 0-.276.038-.495.105l-2.286.828-6.028 2.286-7.181 2.752c-3.296 1.2-5.038 1.857-5.257 1.962z" fill="#fff"/></symbol><symbol fill="none" viewBox="0 0 24 24" id="tik-tok-icon" xmlns="http://www.w3.org/2000/svg"><g clip-path="url(#qclip0_427_792)"><path d="M19.44 5.258A5.303 5.303 0 0114.13 0H10.7v9.37l-.003 5.131A3.103 3.103 0 017.413 17.6c-.516-.029-1-.184-1.42-.436a3.103 3.103 0 01-1.517-2.615 3.106 3.106 0 014.089-2.992V8.075a6.748 6.748 0 00-.989-.073 6.575 6.575 0 00-4.94 2.21 6.432 6.432 0 00-1.623 3.88 6.424 6.424 0 001.913 5.004A6.576 6.576 0 007.576 21c.334 0 .664-.025.989-.073a6.553 6.553 0 003.66-1.83 6.42 6.42 0 001.927-4.569l-.018-7.664a8.667 8.667 0 005.316 1.807V5.257c.001.001-.009.001-.01.001z" fill="#999"/></g><defs><clipPath id="qclip0_427_792"><path fill="#fff" d="M0 0h24v24H0z"/></clipPath></defs></symbol><symbol fill="none" viewBox="0 0 24 24" id="vk-icon" xmlns="http://www.w3.org/2000/svg"><path d="M12.145 20c3.472 0 2.234-2.15 2.502-2.767-.004-.462-.008-.906.008-1.175.22.06.739.317 1.81 1.336C18.122 19.027 18.545 20 19.882 20h2.46c.78 0 1.187-.316 1.39-.58.196-.257.388-.707.178-1.407-.55-1.686-3.751-4.597-3.95-4.904.03-.056.078-.132.103-.17h-.002c.632-.817 3.044-4.35 3.399-5.765a.018.018 0 00.002-.007c.192-.646.016-1.064-.166-1.3-.274-.355-.71-.534-1.3-.534h-2.46c-.824 0-1.45.406-1.765 1.146-.53 1.315-2.015 4.02-3.13 4.977a61.296 61.296 0 01.008-3.161c.036-1.5.152-2.962-1.441-2.962H9.339c-.998 0-1.953 1.066-.92 2.331.905 1.11.326 1.727.52 4.803-.76-.797-2.111-2.949-3.067-5.7-.268-.743-.674-1.433-1.817-1.433H1.594C.596 5.334 0 5.866 0 6.757 0 8.757 4.529 20 12.145 20zM4.055 6.8c.217 0 .239 0 .4.448.979 2.819 3.175 6.99 4.779 6.99 1.205 0 1.205-1.208 1.205-1.662l-.001-3.62c-.066-1.198-.512-1.794-.805-2.156l3.508.004c.002.016-.02 4.004.01 4.97 0 1.372 1.114 2.158 2.853.437 1.835-2.025 3.104-5.052 3.155-5.175.075-.176.14-.236.376-.236h2.47l-.001.009c-.225 1.026-2.446 4.298-3.19 5.314a.886.886 0 00-.033.049c-.327.522-.593 1.099.045 1.91.058.069.21.23.43.452l.02.02c.709.716 3.012 3.04 3.218 3.97-.138.021-.288.005-2.613.01-.495 0-.882-.723-2.36-2.18-1.327-1.263-2.19-1.78-2.974-1.78-1.524 0-1.413 1.21-1.4 2.673.006 1.585-.004 1.084.007 1.184-.09.034-.344.102-1.01.102-6.344 0-10.476-9.847-10.635-11.73.055-.004.812-.001 2.546-.002z" fill="#999"/><path d="M4.055 6.8c.217 0 .239 0 .4.448.979 2.819 3.175 6.99 4.779 6.99 1.205 0 1.205-1.208 1.205-1.662l-.001-3.62c-.066-1.198-.512-1.794-.805-2.156l3.508.004c.002.016-.02 4.004.01 4.97 0 1.372 1.114 2.158 2.853.437 1.835-2.025 3.104-5.052 3.155-5.175.075-.176.14-.236.376-.236h2.47l-.001.009c-.225 1.026-2.446 4.298-3.19 5.314a.886.886 0 00-.033.049c-.327.522-.593 1.099.045 1.91.058.069.21.23.43.452l.02.02c.709.716 3.012 3.04 3.218 3.97-.138.021-.288.005-2.613.01-.495 0-.882-.723-2.36-2.18-1.327-1.263-2.19-1.78-2.974-1.78-1.524 0-1.413 1.21-1.4 2.673.006 1.585-.004 1.084.007 1.184-.09.034-.344.102-1.01.102-6.344 0-10.476-9.847-10.635-11.73.055-.004.812-.001 2.546-.002z" fill="#999"/></symbol><symbol fill="none" viewBox="0 0 40 40" id="whatsapp_icon" xmlns="http://www.w3.org/2000/svg"><path d="M20 40c11.046 0 20-8.954 20-20S31.046 0 20 0 0 8.954 0 20s8.954 20 20 20z" fill="#60D66A"/><path d="M8.572 31.8l1.633-5.964a11.49 11.49 0 01-1.537-5.755c.003-6.346 5.167-11.51 11.515-11.51 3.08.002 5.97 1.2 8.144 3.376a11.442 11.442 0 013.37 8.144c-.003 6.346-5.17 11.51-11.514 11.51-.001 0 0 0 0 0h-.006c-1.926 0-3.82-.484-5.501-1.4l-6.104 1.6zm6.386-3.684l.35.207a9.56 9.56 0 004.87 1.333h.005c5.274 0 9.567-4.291 9.57-9.567 0-2.556-.994-4.96-2.801-6.768a9.509 9.509 0 00-6.766-2.806c-5.279 0-9.572 4.292-9.574 9.567 0 1.808.505 3.568 1.463 5.091l.228.362-.967 3.53 3.622-.95z" fill="#fff"/><path d="M8.972 31.398l1.577-5.758a11.095 11.095 0 01-1.484-5.555c.003-6.127 4.989-11.111 11.115-11.111a11.044 11.044 0 017.863 3.259 11.04 11.04 0 013.253 7.86c-.003 6.127-4.99 11.112-11.116 11.112h-.005a11.1 11.1 0 01-5.311-1.352l-5.892 1.545z" fill="#60D66A"/><path d="M8.572 31.8l1.633-5.964a11.49 11.49 0 01-1.537-5.755c.003-6.346 5.167-11.51 11.515-11.51 3.08.002 5.97 1.2 8.144 3.376a11.442 11.442 0 013.37 8.144c-.003 6.346-5.17 11.51-11.514 11.51-.001 0 0 0 0 0h-.006c-1.926 0-3.82-.484-5.501-1.4l-6.104 1.6zm6.386-3.684l.35.207a9.56 9.56 0 004.87 1.333h.005c5.274 0 9.567-4.291 9.57-9.567 0-2.556-.994-4.96-2.801-6.768a9.509 9.509 0 00-6.766-2.806c-5.279 0-9.572 4.292-9.574 9.567 0 1.808.505 3.568 1.463 5.091l.228.362-.967 3.53 3.622-.95z" fill="url(#spaint0_linear_206_4798)"/><path fill-rule="evenodd" clip-rule="evenodd" d="M17.305 15.27c-.216-.48-.443-.489-.648-.497-.168-.007-.36-.007-.552-.007a1.06 1.06 0 00-.767.36c-.264.288-1.007.984-1.007 2.4 0 1.415 1.031 2.783 1.175 2.975.144.191 1.99 3.19 4.914 4.342 2.43.959 2.925.768 3.453.72.528-.048 1.702-.695 1.942-1.367s.24-1.248.168-1.368c-.072-.12-.264-.192-.552-.336-.287-.144-1.701-.84-1.965-.936-.264-.096-.456-.144-.648.145-.192.287-.743.935-.91 1.127-.169.192-.337.216-.624.072-.288-.144-1.215-.447-2.314-1.427-.855-.763-1.432-1.705-1.6-1.993-.168-.287-.018-.444.126-.587.13-.128.288-.335.432-.504.143-.168.191-.287.287-.48.096-.192.049-.36-.023-.503-.073-.145-.632-1.568-.887-2.136z" fill="#fff"/><defs><linearGradient id="spaint0_linear_206_4798" x1="20.134" y1="31.8" x2="20.134" y2="8.572" gradientUnits="userSpaceOnUse"><stop stop-color="#F9F9F9"/><stop offset="1" stop-color="#fff"/></linearGradient></defs></symbol><symbol fill="none" viewBox="0 0 40 63" id="whitearrow-icon-left" xmlns="http://www.w3.org/2000/svg"><path fill-rule="evenodd" clip-rule="evenodd" d="M32 63L0 31.5 32 0l8 7.875L16 31.5l24 23.625L32 63z" fill="#fff" fill-opacity=".45"/></symbol><symbol fill="none" viewBox="0 0 40 63" id="whitearrow-icon-right" xmlns="http://www.w3.org/2000/svg"><path fill-rule="evenodd" clip-rule="evenodd" d="M8 63l32-31.5L8 0 0 7.875 24 31.5 0 55.125 8 63z" fill="#fff" fill-opacity=".45"/></symbol><symbol fill="none" viewBox="0 0 24 24" id="youtube-icon" xmlns="http://www.w3.org/2000/svg"><g clip-path="url(#vclip0_427_787)"><path fill-rule="evenodd" clip-rule="evenodd" d="M4.096 3.271c4.655-.69 11.155-.69 15.808 0 1.862.276 3.329 1.738 3.649 3.635.596 3.523.596 6.665 0 10.188-.322 1.9-1.788 3.36-3.648 3.636-2.323.346-5.108.518-7.894.518-2.791 0-5.583-.173-7.915-.519-1.862-.276-3.329-1.737-3.649-3.636-.596-3.522-.596-6.663 0-10.186.32-1.898 1.787-3.36 3.649-3.636zM8.805 8.5a.75.75 0 011.134-.644l5.87 3.505a.751.751 0 01-.001 1.289l-5.87 3.495a.751.751 0 01-1.133-.645v-7z" fill="#999"/></g><defs><clipPath id="vclip0_427_787"><path fill="#fff" d="M0 0h24v24H0z"/></clipPath></defs></symbol></svg>