<svg width="60" height="60" viewBox="0 0 60 60" fill="none" xmlns="http://www.w3.org/2000/svg">
<path d="M8.70974 9.67742C7.10934 9.67742 5.80652 8.3746 5.80652 6.77419V2.90323C5.80652 1.30282 7.10934 0 8.70974 0C10.3101 0 11.613 1.30282 11.613 2.90323V6.77419C11.613 8.3746 10.3101 9.67742 8.70974 9.67742Z" fill="#FFA627"/>
<path d="M16.4518 9.67742C14.8514 9.67742 13.5486 8.3746 13.5486 6.77419V2.90323C13.5486 1.30282 14.8514 0 16.4518 0C18.0522 0 19.355 1.30282 19.355 2.90323V6.77419C19.355 8.3746 18.0522 9.67742 16.4518 9.67742Z" fill="#FFA627"/>
<path d="M24.1938 9.67742C22.5934 9.67742 21.2905 8.3746 21.2905 6.77419V2.90323C21.2905 1.30282 22.5934 0 24.1938 0C25.7942 0 27.097 1.30282 27.097 2.90323V6.77419C27.097 8.3746 25.7942 9.67742 24.1938 9.67742Z" fill="#FFA627"/>
<path d="M31.9356 9.67742C30.3352 9.67742 29.0323 8.3746 29.0323 6.77419V2.90323C29.0323 1.30282 30.3352 0 31.9356 0C33.536 0 34.8388 1.30282 34.8388 2.90323V6.77419C34.8388 8.3746 33.536 9.67742 31.9356 9.67742Z" fill="#FFA627"/>
<path d="M39.6774 9.67742C38.077 9.67742 36.7742 8.3746 36.7742 6.77419V2.90323C36.7742 1.30282 38.077 0 39.6774 0C41.2778 0 42.5806 1.30282 42.5806 2.90323V6.77419C42.5806 8.3746 41.2778 9.67742 39.6774 9.67742Z" fill="#FFA627"/>
<path d="M46.4517 35.8065H48.3871V3.87097H42.5807V5.80646H46.4517V35.8065Z" fill="#717171"/>
<path d="M1.93548 5.80646H5.80645V3.87097H0V48.3871H35.8065V46.4516H1.93548V5.80646Z" fill="#717171"/>
<path d="M3.87097 19.3545V44.5158H21.2903V36.7738H43.5484V35.8061H44.5161V11.6125H27.0968V19.3545H3.87097ZM27.0968 21.29V27.0964H21.2903V21.29H27.0968ZM36.7742 29.0319H42.5807V34.8384H36.7742V29.0319ZM34.8387 34.8384H29.0323V29.0319H34.8387V34.8384ZM36.7742 27.0964V21.29H42.5807V27.0964H36.7742ZM34.8387 27.0964H29.0323V21.29H34.8387V27.0964ZM19.3548 27.0964H13.5484V21.29H19.3548V27.0964ZM13.5484 29.0319H19.3548V34.8384H13.5484V29.0319ZM11.6129 34.8384H5.80646V29.0319H11.6129V34.8384ZM11.6129 21.29V27.0964H5.80646V21.29H11.6129ZM5.80646 36.7738H11.6129V42.5803H5.80646V36.7738ZM19.3548 42.5803H13.5484V36.7738H19.3548V42.5803ZM21.2903 29.0319H27.0968V34.8384H21.2903V29.0319ZM42.5807 19.3545H36.7742V13.548H42.5807V19.3545ZM29.0323 13.548H34.8387V19.3545H29.0323V13.548Z" fill="#717171"/>
<path d="M47.4193 60C54.3674 60 59.9999 54.3675 59.9999 47.4194C59.9999 40.4713 54.3674 34.8387 47.4193 34.8387C40.4712 34.8387 34.8386 40.4713 34.8386 47.4194C34.8386 54.3675 40.4712 60 47.4193 60Z" fill="#FFA627"/>
<path d="M13.5483 3.87097H11.6128V5.80645H13.5483V3.87097Z" fill="#717171"/>
<path d="M21.2903 3.87097H19.3549V5.80645H21.2903V3.87097Z" fill="#717171"/>
<path d="M29.0324 3.87097H27.0969V5.80645H29.0324V3.87097Z" fill="#717171"/>
<path d="M36.7741 3.87097H34.8386V5.80645H36.7741V3.87097Z" fill="#717171"/>
<path d="M40.6452 46.4517H38.7097V48.3871H40.6452V46.4517Z" fill="#717171"/>
<path d="M41.9058 47.0033L43.8812 46.8726H44.9094V48.4246H41.9058V47.0033ZM41.9058 49.9258L43.8812 49.7952H51.3594V51.3472H41.9058V49.9258V49.9258ZM43.6102 39.1924H47.2586C50.434 39.1924 52.9332 40.5375 52.9332 43.7686C52.9332 47.0347 50.3433 48.4246 47.2586 48.4246H46.3622V55.2279H43.6102V39.1924V39.1924ZM47.0771 46.8726C49.0525 46.8726 50.2223 45.7936 50.2223 43.9198C50.2223 41.8634 49.0525 41.0771 47.0771 41.0771H46.361V46.8726H47.0771Z" fill="#717171"/>
</svg>
