<svg width="14" height="15" viewBox="0 0 14 15" fill="none" xmlns="http://www.w3.org/2000/svg">
<path d="M13.3877 6.12199C13.2783 6.0153 13.13 5.95537 12.9753 5.95537C12.8206 5.95537 12.6723 6.0153 12.5629 6.12199L6.2092 12.3474C5.93836 12.6117 5.61683 12.8213 5.26295 12.9644C4.90907 13.1074 4.52978 13.181 4.14674 13.1811C3.37314 13.1811 2.63121 12.8814 2.08415 12.3477C1.5371 11.8141 1.22974 11.0903 1.22968 10.3356C1.22963 9.58084 1.53689 8.85701 2.08386 8.3233L8.23745 2.29533C8.5665 1.97941 9.01017 1.80315 9.47183 1.80493C9.93349 1.80671 10.3757 1.98639 10.7022 2.30484C11.0287 2.62328 11.213 3.05468 11.2149 3.50508C11.2168 3.95548 11.0363 4.38837 10.7125 4.70948L4.55895 10.7374C4.44797 10.8412 4.30022 10.8991 4.14653 10.8991C3.99284 10.8991 3.84509 10.8412 3.73411 10.7374C3.62475 10.6307 3.56332 10.486 3.56332 10.3351C3.56332 10.1842 3.62475 10.0394 3.73411 9.93273L9.21278 4.56321C9.31904 4.45588 9.37783 4.31212 9.37651 4.16291C9.37518 4.01369 9.31383 3.87095 9.20567 3.76543C9.09752 3.65991 8.95121 3.60006 8.79826 3.59877C8.64532 3.59747 8.49796 3.65483 8.38795 3.7585L2.90928 9.12801C2.74675 9.28655 2.61782 9.47478 2.52985 9.68194C2.44189 9.8891 2.39661 10.1111 2.39661 10.3354C2.39661 10.5596 2.44189 10.7816 2.52985 10.9888C2.61782 11.196 2.74675 11.3842 2.90928 11.5427C3.24272 11.8532 3.68592 12.0264 4.14682 12.0264C4.60772 12.0264 5.05092 11.8532 5.38436 11.5427L11.5374 5.51419C12.0729 4.97827 12.3704 4.25809 12.3655 3.50967C12.3605 2.76125 12.0536 2.04485 11.5111 1.51567C10.9686 0.986481 10.2343 0.687118 9.46713 0.682429C8.7 0.67774 7.96186 0.968101 7.41261 1.49061L1.25903 7.51858C0.493217 8.26571 0.0629883 9.27905 0.0629883 10.3357C0.0629883 11.3923 0.493217 12.4056 1.25903 13.1527C2.02484 13.8999 3.06351 14.3196 4.14653 14.3196C5.22955 14.3196 6.26822 13.8999 7.03403 13.1527L13.3877 6.92899C13.4422 6.8761 13.4854 6.81323 13.515 6.74398C13.5445 6.67474 13.5597 6.60048 13.5597 6.52549C13.5597 6.4505 13.5445 6.37624 13.515 6.307C13.4854 6.23775 13.4422 6.17488 13.3877 6.12199Z" fill="#FF6927"/>
</svg>
