<svg width="60" height="60" viewBox="0 0 60 60" fill="none" xmlns="http://www.w3.org/2000/svg">
<path d="M30.0462 48.3871V54.1935H10.7192V59.0351H59.0366V48.3871H30.0462Z" fill="#5697D2"/>
<path d="M29.0771 20.3254L31.979 23.2257L27.6463 26.5998C24.7444 28.8589 21.6001 30.777 18.2655 32.3196C13.2694 34.6249 7.92129 36.0635 2.44052 36.5604L0.0866699 36.7741V46.4516L5.88475 45.556C10.3732 44.8627 14.7636 43.609 18.9405 41.8122C23.7405 39.7496 28.2174 37.0052 32.2328 33.6542L37.7771 29.0264L40.6732 31.9325L41.6424 19.349L29.0771 20.3254Z" fill="#5697D2"/>
<path d="M20.1634 37.265C25.1538 34.9136 29.7749 31.863 33.8999 28.1885L36.4903 25.8832L35.2038 24.4388L32.6134 26.7441C28.6268 30.2915 24.1615 33.2438 19.3442 35.5144C16.7942 36.7162 14.123 37.733 11.4172 38.5361L11.9653 40.3907C14.7576 39.5587 17.5211 38.5072 20.1634 37.265Z" fill="#717171"/>
<path d="M9.99231 40.9341L9.5077 39.0564C8.87885 39.2182 8.24423 39.3684 7.60962 39.5128L8.025 41.4021C8.6827 41.2577 9.34039 41.1017 9.99231 40.9341Z" fill="#717171"/>
<path d="M6.05771 41.8005L5.71155 39.8997C5.08271 40.0152 4.44809 40.1192 3.81348 40.2174L4.09617 42.1298C4.75386 42.0316 5.40578 41.9218 6.05771 41.8005Z" fill="#717171"/>
<path d="M0.859615 42.5171C1.28077 42.4767 1.70769 42.4363 2.12885 42.3843L1.90962 40.4603C1.5 40.5065 1.09615 40.547 0.686539 40.5874L0 40.651L0.173077 42.5807L0.859615 42.5171Z" fill="#717171"/>
<path d="M60.0001 19.3548V9.25566C60.0001 7.92104 59.0944 6.75975 57.8021 6.43621L56.7578 6.17622C56.9655 5.77756 57.0982 5.32691 57.0982 4.8416V2.90611C57.0982 1.30573 55.8001 0 54.1963 0C52.5982 0 51.3001 1.29995 51.3001 2.90611V4.8416C51.3001 5.33269 51.4328 5.78334 51.6463 6.18777L50.5963 6.43621C49.304 6.75975 48.3982 7.92104 48.3982 9.25566V19.3548H50.4001L51.2309 30.9677H49.0213L46.5809 33.0014C40.3963 38.1666 33.5194 42.4131 26.1347 45.6254C18.9405 48.7626 11.3424 50.8772 3.55975 51.9172L0.0866699 52.3794V60H60.0001V30.9677H57.1732L58.004 19.3548H60.0001ZM53.2386 2.90611C53.2386 2.37458 53.6713 1.93548 54.2021 1.93548C54.7328 1.93548 55.1713 2.3688 55.1713 2.90611V4.8416C55.1713 5.37313 54.7386 5.80645 54.2021 5.80645C53.6713 5.80645 53.2386 5.37313 53.2386 4.8416V2.90611ZM47.8213 34.4921L48.404 34.0067V58.0703H40.6732V39.8479C43.1424 38.1839 45.5309 36.3987 47.8213 34.4921ZM38.7405 58.0645H31.0097V45.4694C33.6636 44.1464 36.2424 42.6904 38.7405 41.1016V58.0645ZM26.9078 47.3991C27.6405 47.0814 28.3617 46.7463 29.0771 46.4054V58.0645H21.3463V49.5946C23.2213 48.9302 25.079 48.1964 26.9078 47.3991ZM19.4136 58.0645H11.6828V52.3967C14.2905 51.7959 16.8694 51.0794 19.4136 50.2417V58.0645ZM2.01936 54.0722L3.81936 53.8296C5.80975 53.5638 7.78859 53.2287 9.75013 52.8243V58.0587H2.01936V54.0722ZM58.0674 58.0645H50.3367V32.9032H58.0674V58.0645ZM53.1694 30.9677L52.2059 17.4194H50.3367V9.25566C50.3367 8.81079 50.6367 8.42369 51.0694 8.31392L53.354 7.74194H55.0501L57.3347 8.31392C57.7674 8.42369 58.0674 8.81079 58.0674 9.25566V17.4194H56.204L55.2347 30.9677H53.1694Z" fill="#717171"/>
<path d="M55.1712 34.8386H53.2385V48.387H55.1712V34.8386Z" fill="#717171"/>
<path d="M55.1712 50.3226H53.2385V52.2581H55.1712V50.3226Z" fill="#717171"/>
<path d="M55.1712 54.1934H53.2385V56.1288H55.1712V54.1934Z" fill="#717171"/>
<path d="M45.5076 40.6451H43.575V48.3871H45.5076V40.6451Z" fill="#717171"/>
<path d="M45.5076 50.3226H43.575V52.2581H45.5076V50.3226Z" fill="#717171"/>
<path d="M45.5076 54.1934H43.575V56.1288H45.5076V54.1934Z" fill="#717171"/>
<path d="M35.8443 46.4517H33.9116V48.3871H35.8443V46.4517Z" fill="#717171"/>
<path d="M35.8443 50.3226H33.9116V52.2581H35.8443V50.3226Z" fill="#717171"/>
<path d="M35.8443 54.1934H33.9116V56.1288H35.8443V54.1934Z" fill="#717171"/>
<path d="M26.1809 50.3226H24.2482V52.2581H26.1809V50.3226Z" fill="#717171"/>
<path d="M26.1809 54.1934H24.2482V56.1288H26.1809V54.1934Z" fill="#717171"/>
<path d="M16.5173 54.1934H14.5846V56.1288H16.5173V54.1934Z" fill="#717171"/>
</svg>
