<svg width="60" height="60" viewBox="0 0 60 60" fill="none" xmlns="http://www.w3.org/2000/svg">
<g clip-path="url(#clip0_51_3902)">
<path d="M46.4529 10.6373H38.7117V16.4444H46.4529V10.6373Z" fill="#FF6927"/>
<path d="M30.9644 42.5786H23.2231V50.3214H30.9644V42.5786Z" fill="#FF6927"/>
<path d="M44.5178 48.3868H36.7766V56.1296H44.5178V48.3868Z" fill="#FF6927"/>
<path d="M54.1941 48.3868H46.4529V56.1296H54.1941V48.3868Z" fill="#FF6927"/>
<path d="M60 39.6728L55.9529 19.3451H52.2529V13.3733L54.4353 14.9324C54.9294 15.2913 55.5176 15.4737 56.1235 15.4737C57.0588 15.4737 57.9412 15.0207 58.4882 14.2558C58.9412 13.6263 59.1176 12.8556 58.9882 12.0907C58.8588 11.3258 58.4412 10.6551 57.8117 10.208L44.2646 0.529519C43.2763 -0.176506 41.8822 -0.176506 40.894 0.529519L27.3468 10.208C26.7174 10.6551 26.2939 11.3258 26.1703 12.0907C26.0409 12.8556 26.2174 13.6263 26.6703 14.2558C27.5704 15.509 29.4645 15.8267 30.7174 14.9266L32.8998 13.3674V19.3451H23.5997L22.2527 18.1449C21.188 17.1976 19.4526 17.1976 18.3938 18.1449L0.976047 33.6304C0.39369 34.1422 0.0525107 34.8541 0.00545151 35.6308C-0.0416076 36.4074 0.217218 37.1487 0.734868 37.7312C1.28781 38.3549 2.07605 38.7079 2.90547 38.7079C3.61724 38.7079 4.2996 38.449 4.8349 37.9724L5.80549 37.1075V60.0004H58.0647V46.4506H60V39.6728ZM54.3647 21.2808L58.0647 39.7669V40.6377H34.841V37.1017L35.8116 37.9665C36.9645 38.9903 38.8881 38.8785 39.9116 37.7253C40.4293 37.1428 40.6822 36.4015 40.641 35.6249C40.594 34.8483 40.2528 34.1422 39.6704 33.6245L35.5763 29.9943H52.2588V21.2808H54.3647ZM44.5175 28.0586H40.6469V20.3159H44.5175V28.0586V28.0586ZM29.5939 13.3557C29.1762 13.6557 28.5409 13.5498 28.2468 13.1321C28.0939 12.9203 28.0351 12.6673 28.0821 12.4084C28.1233 12.1495 28.2586 11.9318 28.4762 11.7789L42.0175 2.10631C42.3469 1.87097 42.8116 1.87097 43.1411 2.10631L56.6882 11.7906C56.9 11.9377 57.0353 12.1613 57.0823 12.4143C57.1235 12.6673 57.0647 12.9262 56.9176 13.138C56.6176 13.5557 55.9882 13.6675 55.5647 13.3615L42.5822 4.08318L29.5939 13.3557ZM42.5822 6.46014L50.3235 11.9907V28.0586H46.4528V18.3802H38.7116V28.0586H34.841V11.9907L42.5822 6.46014ZM32.9057 21.2808V27.6115L25.7821 21.2808H32.9057ZM3.54665 36.5251C3.15842 36.8663 2.52312 36.831 2.18194 36.4427C2.01135 36.2485 1.92311 36.0014 1.94076 35.7426C1.95841 35.4837 2.07017 35.2483 2.26429 35.0777L19.6821 19.5922C19.8585 19.4334 20.0879 19.3451 20.3232 19.3451C20.5585 19.3451 20.788 19.4334 20.9703 19.5922L38.3881 35.0777C38.5822 35.2483 38.694 35.4837 38.7116 35.7426C38.7293 36.0073 38.641 36.2485 38.4704 36.4427C38.1293 36.8251 37.4881 36.8663 37.1057 36.5192L20.3232 21.6103L3.54665 36.5251ZM20.3232 24.199L32.9057 35.3837V38.702H25.1586V30.9651H15.482V38.7079H7.7408V35.3895L20.3232 24.199ZM23.2233 38.7079H17.4173V32.9008H23.2233V38.7079ZM7.7408 40.6436H32.8998V58.0647H21.288V46.4506H9.67611V58.0647H7.7408V40.6436ZM19.3526 58.0647H11.6114V48.3863H19.3526V58.0647ZM56.1294 58.0647H34.841V46.4506H56.1294V58.0647V58.0647ZM34.841 44.5149V42.5792H58.0647V44.5149H34.841Z" fill="#717171"/>
</g>
<defs>
<clipPath id="clip0_51_3902">
<rect width="60" height="60" fill="white"/>
</clipPath>
</defs>
</svg>
