<svg width="175" height="34" viewBox="0 0 175 34" fill="none" xmlns="http://www.w3.org/2000/svg">
<path d="M17.2953 34C26.8472 34 34.5906 26.3888 34.5906 17C34.5906 7.61116 26.8472 0 17.2953 0C7.74336 0 0 7.61116 0 17C0 26.3888 7.74336 34 17.2953 34Z" fill="#16932B"/>
<path d="M17.2954 32.1296C25.7963 32.1296 32.6876 25.3559 32.6876 17.0001C32.6876 8.64431 25.7963 1.87061 17.2954 1.87061C8.79443 1.87061 1.90308 8.64431 1.90308 17.0001C1.90308 25.3559 8.79443 32.1296 17.2954 32.1296Z" fill="#FF6927"/>
<path d="M29.9098 12.3238C30.2126 12.2482 30.4433 12.0451 30.4048 11.8372C30.3664 11.6483 30.0828 11.5207 29.7753 11.5963C29.4725 11.6719 29.2419 11.875 29.2803 12.0828C29.338 12.2671 29.6071 12.3615 29.9098 12.3238Z" fill="white"/>
<path d="M10.4281 22.2005C10.3897 22.7815 10.2743 23.3247 9.70728 23.3058C9.68806 23.3058 9.34686 23.1925 9.00567 23.1925C8.30405 23.1925 8.18872 23.5467 8.18872 23.8679C8.18872 24.7465 9.14022 25.011 9.73131 25.011C10.3032 25.011 10.9087 24.8221 11.4229 24.4489C12.2975 23.8491 12.8886 22.4462 13.1337 21.8132C12.8501 21.7187 12.581 21.6243 12.3167 21.5156C11.7785 21.9171 11.1297 22.1816 10.4281 22.2005Z" fill="white"/>
<path d="M19.5009 19.938C19.5971 20.3112 19.7652 21.0244 19.8614 21.322C19.8614 21.322 19.3279 21.5487 19.3087 21.5629C19.1742 21.6385 19.1357 21.7707 19.2126 21.8983C19.2895 22.0305 19.424 22.0683 19.5538 21.9927C20.2218 21.6196 22.1584 20.8355 22.9994 21.6196C23.4559 22.0305 23.8932 23.4145 23.5713 24.3687C23.3983 24.9119 22.9802 25.2284 22.3362 25.285C21.9566 25.3228 21.6683 25.2472 21.4424 25.0441C20.8898 24.5387 20.8705 23.4901 20.8705 23.4901C20.8705 23.3956 20.8129 23.32 20.736 23.2823C20.6591 23.2445 20.563 23.2445 20.4909 23.3012C20.4717 23.32 19.0252 24.312 17.8478 23.7688C16.137 22.9658 16.5167 20.7599 16.5359 20.6654C16.5551 20.5332 16.459 20.4056 16.3437 20.3867C16.2091 20.3678 16.0794 20.4623 16.0601 20.5757C16.0601 20.5946 15.9448 21.1756 16.0601 21.8841C14.8059 21.7518 13.7006 21.5109 12.7491 21.1567C13.2633 20.6135 13.5468 19.8671 13.5468 19.0641C13.5468 18.9319 13.4315 18.8232 13.3017 18.8232C13.1672 18.8232 13.0567 18.9366 13.0567 19.0641C13.0567 20.5615 11.8216 21.7566 10.3367 21.7566C9.21219 21.7566 8.22705 21.1 7.78493 20.075C7.72727 19.9427 7.59271 19.9049 7.46296 19.9238C7.3284 19.9805 7.28996 20.1128 7.30918 20.2403C7.46296 20.5946 7.6696 20.9158 7.91949 21.1945C7.91949 21.1945 7.91949 21.2134 7.90027 21.2134C7.3284 22.4462 6.26156 23.8113 4.47389 23.3059C3.92125 23.1358 3.54161 22.7816 3.42627 22.3139C3.34938 21.9597 3.44549 21.6054 3.67136 21.4165C3.8828 21.2464 4.18555 21.2086 4.52675 21.3409C5.40137 21.6574 5.95401 20.2167 6.48743 18.8138C6.77096 18.0675 7.13618 17.1511 7.38126 17C7.70324 16.811 8.50577 16.7921 8.92386 17.3731C8.9623 17.5432 9.01997 17.8785 9.03919 17.8974C9.05841 18.0108 9.21219 18.1053 9.32272 18.0675C9.45727 18.0486 9.53416 17.8974 9.51494 17.7888C9.23141 16.2914 9.68794 15.3751 10.0484 14.9074C10.0484 14.9074 7.34763 12.9235 7.76571 10.2311C7.78493 10.08 7.86182 9.99023 7.93871 9.99023C8.0156 9.99023 8.07327 10.1603 8.11171 10.3445C8.28471 10.8499 8.54902 11.6151 9.25544 12.4559C9.92342 13.2589 10.5289 13.7265 11.0623 13.9344C11.12 13.9533 12.4319 14.1942 14.9068 14.1753C16.2956 14.1753 18.1602 14.0052 18.2371 13.9675C18.3476 14.5579 18.6359 15.6018 19.4817 16.5512C20.2506 17.4156 21.1204 17.7982 21.7163 18.058C22.5861 18.4406 23.3694 18.5965 23.9077 18.6626C23.9125 18.6626 23.9221 18.6626 23.9269 18.6626C23.9077 18.7004 23.8884 18.7382 23.8692 18.776C23.5472 19.5412 23.0523 20.2356 22.2882 20.7599C21.6394 20.6843 20.9186 20.8733 20.3467 21.0575C20.3083 20.9063 20.1929 20.4954 20.0055 19.7679C19.9671 19.6357 19.8325 19.5601 19.7028 19.5979C19.5394 19.6546 19.4673 19.8057 19.5009 19.938Z" fill="white"/>
<path d="M25.2484 6.93883C24.7727 6.90104 24.2392 8.15277 24.071 8.6393C24.4699 8.69598 24.9072 8.80935 25.3445 9.01246C25.4022 8.86603 25.556 6.95772 25.2484 6.93883Z" fill="white"/>
<path d="M24.9649 15.394C24.9457 15.394 24.7919 15.3562 24.5853 15.4129C24.7967 15.9183 25.2725 16.2726 25.878 16.4237C26.9448 16.7024 28.103 16.6127 29.3813 15.4885C30.0108 14.9264 30.6163 13.8967 30.7508 12.9614C30.6355 13.0937 30.5058 13.1881 30.3135 13.259C29.6263 13.4857 28.7902 13.1456 28.5835 12.5504C28.4298 12.1962 28.6028 11.875 28.8671 11.6341C28.6556 11.6719 28.4298 11.7286 28.1799 11.7852C27.4782 11.9553 26.964 12.0639 26.7142 11.823C26.5219 11.6341 26.4306 11.2987 26.3153 10.9633C26.1615 10.4579 26.0125 9.89582 25.4791 9.56045C24.3738 8.87081 23.1004 9.11171 23.0811 9.11171C22.985 9.13061 22.9081 9.09282 22.8505 9.01724C22.7928 8.94167 22.6438 7.55767 22.3939 7.14672C22.1104 6.62241 21.9374 6.60352 21.8605 6.60352C21.3463 6.60352 20.4909 7.91194 20.1882 9.72577C20.1882 9.78245 20.1497 9.80135 20.1113 9.83914C19.4818 10.5288 18.7417 12.815 18.7417 13.618C18.7417 13.6369 18.7417 13.6935 18.7417 13.7313C18.7994 14.4965 20.0921 17.8266 24.0134 17.94C24.0519 17.94 24.0903 17.94 24.1288 17.94C25.556 17.8455 27.0409 17.2315 27.7618 16.8347C27.2668 17.0047 26.4499 17.0614 25.7242 16.8914C24.9649 16.7024 24.3931 16.2348 24.1047 15.6207C24.0086 15.6963 23.9317 15.7908 23.8741 15.9183C23.8164 16.0128 23.6626 16.0884 23.5521 16.0317C23.4175 15.9561 23.3791 15.8239 23.4368 15.7152C23.8548 14.9311 24.6526 14.8555 25.0178 14.9122C25.1523 14.9311 25.2292 15.0823 25.21 15.1909C25.2292 15.3184 25.1139 15.4129 24.9649 15.394ZM26.0654 11.4829C26.2192 11.4829 26.3297 11.653 26.3489 11.8939C26.3489 12.1206 26.2144 12.3048 26.0846 12.3048C25.9308 12.3048 25.8203 12.1348 25.8011 11.8939C25.7819 11.6719 25.8972 11.4829 26.0654 11.4829ZM22.3363 9.22035C22.2209 9.25814 22.0143 9.35261 21.726 9.3904C21.4424 9.44708 21.4617 9.22035 21.6683 8.66298C21.8605 8.13866 22.0479 7.87887 22.0479 7.87887C22.2834 7.66631 22.4132 9.20146 22.3363 9.22035ZM24.8111 13.1125C24.5661 13.1125 24.3354 12.815 24.3354 12.4229C24.3354 12.0309 24.5276 11.7144 24.7919 11.7144C25.037 11.7144 25.2677 12.012 25.2677 12.404C25.2677 12.7913 25.0803 13.1125 24.8111 13.1125Z" fill="white"/>
<path d="M23.6722 20.1222C23.4607 20.4198 23.1772 20.7032 22.8552 20.9819C23.0282 21.0575 23.158 21.1519 23.3118 21.2606C23.5232 21.4495 23.7298 21.7849 23.8644 22.1581C24.3594 21.988 24.7198 21.8227 24.7198 21.8227C24.7967 21.7849 24.8928 21.7849 24.9505 21.8227C25.0273 21.8605 25.0658 21.936 25.085 22.0116C25.2772 23.4523 25.902 23.8821 26.5123 23.6365C26.9688 23.4665 27.2523 23.1878 27.3677 22.739C27.5791 21.8227 27.0649 20.6276 26.6084 20.212C25.974 19.6357 24.6429 19.8435 23.6722 20.1222Z" fill="white"/>
<path d="M24.2633 18.0014L23.9654 18.6438C23.9558 18.6627 23.9366 18.6769 23.9173 18.6721C22.8024 18.5635 18.982 17.7605 18.093 14.0006C18.0882 13.977 18.1026 13.9486 18.1218 13.9392L18.6793 13.7172C18.7081 13.703 18.7417 13.7219 18.7465 13.755C18.8811 14.6052 20.4573 17.7747 24.2153 17.9258C24.2537 17.9353 24.2778 17.9683 24.2633 18.0014Z" fill="#20A038"/>
<path d="M48.0559 6.18797C48.0559 5.72506 48.4547 5.33301 48.9257 5.33301H50.2136C50.6845 5.33301 51.0834 5.72506 51.0834 6.18797V17.5056C51.0834 17.9685 50.6845 18.3605 50.2136 18.3605H48.9257C48.4547 18.3605 48.0559 17.9685 48.0559 17.5056V13.3725C47.3927 13.8732 46.446 14.1377 45.2158 14.1377C43.3031 14.1377 41.1406 13.1316 41.1406 9.98569V6.18797C41.1406 5.72506 41.5395 5.33301 42.0104 5.33301H43.2983C43.7693 5.33301 44.1681 5.72506 44.1681 6.18797V9.09294C44.1681 10.8218 44.889 11.3461 46.0231 11.3461C46.7247 11.3461 47.4071 11.1241 48.051 10.6564V6.18797H48.0559Z" fill="#FF6927"/>
<path d="M62.1602 17.5056C62.1602 17.9685 61.7613 18.3605 61.2904 18.3605H54.9855C54.5097 18.3605 54.1108 17.9685 54.1108 17.5056V6.18797C54.1108 5.72506 54.5097 5.33301 54.9855 5.33301H61.103C61.5787 5.33301 61.9776 5.72506 61.9776 6.18797V7.26493C61.9776 7.72784 61.5787 8.11989 61.103 8.11989H57.148V10.4108H60.5359C61.0069 10.4108 61.4057 10.8029 61.4057 11.2705V12.3475C61.4057 12.8151 61.0069 13.2024 60.5359 13.2024H57.148V15.5689H61.2952C61.7709 15.5689 62.165 15.961 62.165 16.4239V17.5056H62.1602Z" fill="#FF6927"/>
<path d="M69.0899 18.3652C68.6189 18.3652 68.2201 17.9732 68.2201 17.5103V8.12462H65.1157C64.6447 8.12462 64.2458 7.73256 64.2458 7.26966V6.18797C64.2458 5.72506 64.6447 5.33301 65.1157 5.33301H74.3568C74.8277 5.33301 75.2266 5.72506 75.2266 6.18797V7.26493C75.2266 7.72784 74.8277 8.11989 74.3568 8.11989H71.2476V17.5008C71.2476 17.9637 70.8487 18.3558 70.3778 18.3558H69.0899V18.3652Z" fill="#FF6927"/>
<path d="M77.4996 6.18797C77.4996 5.72506 77.8985 5.33301 78.3694 5.33301H79.6573C80.1283 5.33301 80.5271 5.72506 80.5271 6.18797V9.40942C80.9452 9.35274 81.3441 9.33384 81.6997 9.33384C84.881 9.33384 86.5245 10.9918 86.5245 13.7267C86.5245 16.5561 84.5206 18.3983 81.0509 18.3983C80.2965 18.3983 79.4026 18.3794 78.3598 18.3605C77.8889 18.3605 77.49 17.9496 77.49 17.4867V6.18797H77.4996ZM80.5271 15.5358C80.9836 15.5925 81.2816 15.6114 81.4161 15.6114C82.6848 15.6114 83.3095 15.0163 83.3095 13.807C83.3095 12.6876 82.5887 12.1302 81.4354 12.1302C81.2432 12.1302 80.9404 12.168 80.5271 12.2246V15.5358ZM90.8495 17.5056C90.8495 17.9685 90.4554 18.3605 89.9797 18.3605H88.6918C88.2208 18.3605 87.8172 17.9685 87.8172 17.5056V6.18797C87.8172 5.72506 88.216 5.33301 88.6918 5.33301H89.9797C90.4554 5.33301 90.8495 5.72506 90.8495 6.18797V17.5056Z" fill="#FF6927"/>
<path d="M102.023 6.50439C102.873 7.32156 103.291 8.36546 103.291 9.61248C103.291 10.8217 102.835 11.8656 101.946 12.7064C101.057 13.5614 99.8649 13.9912 98.3848 13.9912C97.7216 13.9912 97.2314 13.9723 96.9094 13.9345V17.5055C96.9094 17.9684 96.5106 18.3605 96.0348 18.3605H94.7469C94.2712 18.3605 93.8723 17.9684 93.8723 17.5055V6.20681C93.8723 5.73918 94.2712 5.33295 94.7469 5.33295C96.0925 5.31406 97.1497 5.29517 97.9282 5.29517C99.8024 5.29517 101.167 5.70611 102.023 6.50439ZM96.9094 11.1051C97.3804 11.1618 97.8561 11.1996 98.2934 11.1996C99.2594 11.1996 100.072 10.732 100.072 9.59831C100.072 8.59219 99.466 8.0915 98.2358 8.0915C98.1781 8.0915 97.7456 8.11039 96.9094 8.12929V11.1051Z" fill="#FF6927"/>
<path d="M113.801 17.5056C113.801 17.9685 113.402 18.3605 112.931 18.3605H106.621C106.146 18.3605 105.747 17.9685 105.747 17.5056V6.18797C105.747 5.72506 106.146 5.33301 106.621 5.33301H112.739C113.215 5.33301 113.614 5.72506 113.614 6.18797V7.26493C113.614 7.72784 113.215 8.11989 112.739 8.11989H108.779V10.4108H112.167C112.638 10.4108 113.037 10.8029 113.037 11.2705V12.3475C113.037 12.8151 112.638 13.2024 112.167 13.2024H108.779V15.5689H112.931C113.402 15.5689 113.801 15.961 113.801 16.4239V17.5056Z" fill="#FF6927"/>
<path d="M130.861 17.5056C130.861 17.9685 130.462 18.3605 129.986 18.3605H128.698C128.227 18.3605 127.828 17.9685 127.828 17.5056V8.12462H124.911L124.628 10.5809C123.83 16.8159 122.619 18.4361 119.933 18.455C119.423 18.455 119.082 18.1385 119.082 17.6945V16.575C119.082 15.9987 119.25 15.7578 119.88 15.4744C120.409 15.2524 120.827 14.6384 121.129 13.6134C121.413 12.6073 121.677 10.7084 121.889 7.93568L122.023 6.18797C122.081 5.68255 122.48 5.33301 122.951 5.33301H129.996C130.467 5.33301 130.87 5.72506 130.87 6.18797V17.5056H130.861Z" fill="#FF6927"/>
<path d="M141.919 15.6256H136.671L135.82 17.7465C135.647 18.1574 135.349 18.3605 134.912 18.3605H133.759C133.307 18.3605 132.947 17.9874 132.947 17.5622C132.947 17.4489 132.966 17.3402 133.004 17.2458L137.776 5.94707C137.964 5.53612 138.266 5.33301 138.704 5.33301H140.088C140.525 5.33301 140.828 5.53612 141.015 5.94707L145.787 17.2458C145.825 17.3402 145.845 17.4489 145.845 17.5622C145.845 17.9921 145.484 18.3605 145.033 18.3605H143.687C143.25 18.3605 142.947 18.1574 142.779 17.7465L141.919 15.6256ZM139.304 9.14962L137.81 12.8387H140.784L139.304 9.14962Z" fill="#FF6927"/>
<path d="M158.622 17.5056C158.622 17.9685 158.224 18.3605 157.753 18.3605H156.465C155.989 18.3605 155.595 17.9685 155.595 17.5056V8.12462H150.958V17.5056C150.958 17.9685 150.559 18.3605 150.083 18.3605H148.795C148.324 18.3605 147.925 17.9685 147.925 17.5056V6.18797C147.925 5.72506 148.324 5.33301 148.795 5.33301H157.753C158.224 5.33301 158.622 5.72506 158.622 6.18797V17.5056Z" fill="#FF6927"/>
<path d="M161.65 6.18797C161.65 5.72506 162.049 5.33301 162.52 5.33301H163.808C164.279 5.33301 164.682 5.72506 164.682 6.18797V9.40942C165.096 9.35274 165.495 9.33384 165.855 9.33384C169.036 9.33384 170.685 10.9918 170.685 13.7267C170.685 16.5561 168.676 18.3983 165.211 18.3983C164.452 18.3983 163.563 18.3794 162.52 18.3605C162.049 18.3605 161.65 17.9496 161.65 17.4867V6.18797ZM164.682 15.5358C165.139 15.5925 165.442 15.6114 165.572 15.6114C166.84 15.6114 167.47 15.0163 167.47 13.807C167.47 12.6876 166.749 12.1302 165.596 12.1302C165.408 12.1302 165.101 12.168 164.687 12.2246V15.5358H164.682ZM175 17.5056C175 17.9685 174.601 18.3605 174.13 18.3605H172.842C172.371 18.3605 171.973 17.9685 171.973 17.5056V6.18797C171.973 5.72506 172.371 5.33301 172.842 5.33301H174.13C174.601 5.33301 175 5.72506 175 6.18797V17.5056Z" fill="#FF6927"/>
<path d="M42.616 28.7852V23.0461C42.616 22.8383 42.789 22.6682 43.0004 22.6682H45.3167C46.0952 22.6682 46.7151 22.876 47.1669 23.287C47.6186 23.6979 47.8444 24.2411 47.8444 24.9166V24.9355C47.8444 25.6677 47.5945 26.2298 47.09 26.6218C46.5854 27.0186 45.9462 27.217 45.1725 27.217H44.0673V28.7852C44.0673 28.993 43.8943 29.1631 43.6828 29.1631H43.0004C42.789 29.1631 42.616 28.993 42.616 28.7852ZM44.0721 25.9416H45.2254C45.5762 25.9416 45.8597 25.8472 46.0664 25.6629C46.273 25.4787 46.3787 25.2425 46.3787 24.9591V24.9402C46.3787 24.6238 46.273 24.3829 46.0664 24.2128C45.8597 24.0428 45.5714 23.9577 45.1966 23.9577H44.0721V25.9416Z" fill="#FF6927"/>
<path d="M47.9212 28.634L50.4249 22.8477C50.4874 22.706 50.6268 22.6162 50.7805 22.6162H51.6119C51.7657 22.6162 51.905 22.706 51.9675 22.8477L54.4712 28.634C54.5769 28.8843 54.3943 29.1583 54.1156 29.1583H53.438C53.2794 29.1583 53.1401 29.0638 53.0824 28.9221L52.5778 27.6987H49.7858L49.2812 28.9221C49.2235 29.0638 49.0794 29.1583 48.9256 29.1583H48.2816C47.9981 29.163 47.8155 28.8843 47.9212 28.634ZM50.3 26.4423H52.054L51.1746 24.3356L50.3 26.4423Z" fill="#FF6927"/>
<path d="M55.7158 28.7852V23.0461C55.7158 22.8383 55.8888 22.6682 56.1003 22.6682H60.2186C60.4301 22.6682 60.6031 22.8383 60.6031 23.0461V23.5515C60.6031 23.7593 60.4301 23.9294 60.2186 23.9294H57.1287V25.1906H58.7914C59.5507 25.1906 60.1418 25.3559 60.555 25.6866C60.9683 26.0172 61.1798 26.4943 61.1798 27.1178V27.1272C61.1798 27.7649 60.9683 28.2609 60.5406 28.6199C60.1177 28.9789 59.5122 29.1583 58.7337 29.1583H56.0955C55.8888 29.1631 55.7158 28.993 55.7158 28.7852ZM57.1335 27.9019H58.7674C59.0557 27.9019 59.2912 27.8358 59.4642 27.7082C59.642 27.576 59.7285 27.3965 59.7285 27.1603V27.1508C59.7285 26.9241 59.6468 26.7446 59.4786 26.6171C59.3104 26.4896 59.0797 26.4281 58.777 26.4281H57.1335V27.9019Z" fill="#FF6927"/>
<path d="M68.1238 28.294C67.4559 28.9459 66.6149 29.2718 65.6105 29.2718C64.6014 29.2718 63.77 28.9506 63.1068 28.3035C62.4436 27.6563 62.1121 26.8675 62.1121 25.9323V25.9134C62.1121 24.9781 62.4484 24.1846 63.1164 23.5327C63.7844 22.8809 64.6254 22.5549 65.6297 22.5549C66.6389 22.5549 67.4703 22.8761 68.1335 23.5233C68.7966 24.1704 69.1282 24.9592 69.1282 25.8945V25.9134C69.1282 26.8486 68.7966 27.6422 68.1238 28.294ZM64.1929 27.3635C64.5725 27.7603 65.0483 27.9587 65.6297 27.9587C66.2064 27.9587 66.6822 27.765 67.057 27.3729C67.427 26.9856 67.6144 26.5038 67.6144 25.937V25.9181C67.6144 25.3513 67.427 24.8647 67.0474 24.4727C66.6678 24.0759 66.192 23.8775 65.6105 23.8775C65.029 23.8775 64.5581 24.0712 64.1833 24.4632C63.8132 24.8506 63.6258 25.3324 63.6258 25.8992V25.9181C63.6258 26.4849 63.818 26.9667 64.1929 27.3635Z" fill="#FF6927"/>
<path d="M71.6801 28.7852V23.9861H70.0558C69.8444 23.9861 69.6714 23.816 69.6714 23.6082V23.0461C69.6714 22.8383 69.8444 22.6682 70.0558 22.6682H74.7605C74.9719 22.6682 75.1449 22.8383 75.1449 23.0461V23.6082C75.1449 23.816 74.9719 23.9861 74.7605 23.9861H73.1362V28.7852C73.1362 28.993 72.9632 29.1631 72.7518 29.1631H72.0694C71.8483 29.1631 71.6801 28.993 71.6801 28.7852Z" fill="#FF6927"/>
<path d="M75.0679 28.634L77.5716 22.8477C77.6341 22.706 77.7735 22.6162 77.9273 22.6162H78.7586C78.9124 22.6162 79.0518 22.706 79.1142 22.8477L81.6179 28.634C81.7237 28.8843 81.5411 29.1583 81.2623 29.1583H80.5847C80.4262 29.1583 80.2868 29.0638 80.2291 28.9221L79.7245 27.6987H76.9325L76.4279 28.9221C76.3702 29.0638 76.2261 29.1583 76.0723 29.1583H75.4284C75.1448 29.163 74.9622 28.8843 75.0679 28.634ZM77.4467 26.4423H79.2007L78.3213 24.3356L77.4467 26.4423Z" fill="#FF6927"/>
</svg>
