<svg width="16" height="16" viewBox="0 0 16 16" fill="none" xmlns="http://www.w3.org/2000/svg">
<path d="M8.73222 1V1.96461C11.6564 1.96461 14.0357 4.34478 14.0357 7.26996H15C15 3.8128 12.1882 1 8.73222 1ZM3.74211 2.44981C3.48947 2.44981 3.23635 2.53228 3.03048 2.69819L3.00685 2.71749L1.49053 4.28208L1.52283 4.2517C1.02141 4.68384 0.882557 5.36679 1.09807 5.94073C1.50451 7.11273 2.53966 9.37908 4.58344 11.4202C6.63059 13.471 8.91978 14.4626 10.0523 14.9048L10.0639 14.9087L10.075 14.9126C10.3585 15.0063 10.6615 15.0251 10.9545 14.9669C11.2474 14.9088 11.5203 14.7757 11.7465 14.5807L11.761 14.5687L13.2672 13.0615C13.6674 12.6612 13.6674 11.9599 13.2672 11.5601L11.2919 9.58165C10.8907 9.18037 10.1897 9.18037 9.78858 9.58165L8.83203 10.5385C8.48971 10.375 7.64693 9.95109 6.84562 9.18712C6.05588 8.4328 5.65234 7.56176 5.50625 7.22463L6.47052 6.26002C6.89335 5.83703 6.91746 5.1102 6.43002 4.72146L6.4739 4.76246L4.47689 2.71749L4.45423 2.69819C4.25219 2.53645 4.00088 2.44879 3.74211 2.44981ZM8.73222 2.92922V3.89383C10.5928 3.89383 12.1072 5.40827 12.1072 7.26996H13.0715C13.0715 4.87677 11.1251 2.92922 8.73222 2.92922ZM3.74307 3.41152C3.77779 3.41152 3.81154 3.42455 3.8448 3.45011L5.80566 5.45843L5.82928 5.47772C5.82349 5.47289 5.8476 5.5192 5.78878 5.57804L4.3631 7.00469L4.47303 7.29601C4.47303 7.29601 5.01736 8.77572 6.18027 9.8855C7.3239 10.9765 8.73415 11.5726 8.73415 11.5726L9.03452 11.7009L10.4703 10.2641C10.5518 10.1831 10.5287 10.1831 10.6101 10.2641L12.5855 12.2425C12.6674 12.3245 12.6674 12.2975 12.5855 12.38L11.1164 13.8496C10.8927 14.0396 10.6617 14.0893 10.3835 13.9971C9.29343 13.5708 7.15998 12.637 5.26518 10.7387C3.35688 8.83215 2.36754 6.66612 2.00497 5.61662L2.00304 5.61083L2.00015 5.60408C1.92735 5.41116 1.98086 5.13094 2.15202 4.98335L2.16793 4.96889L3.64038 3.45011C3.66941 3.42626 3.70552 3.41269 3.74307 3.41152ZM8.73222 4.85844V5.82305C9.52968 5.82305 10.1786 6.47223 10.1786 7.26996H11.1429C11.1429 5.94025 10.0615 4.85844 8.73222 4.85844Z" fill="#FF6927" stroke="#FF6927" stroke-width="0.4"/>
</svg>
