<svg width="89" height="62" viewBox="0 0 89 62" fill="none" xmlns="http://www.w3.org/2000/svg">
<path opacity="0.4" d="M69.4618 39.4545C65.6151 39.4545 61.8548 38.2976 58.6563 36.1299C55.4579 33.9622 52.9651 30.8813 51.493 27.2766C50.0209 23.6719 49.6357 19.7054 50.3862 15.8787C51.1367 12.052 52.989 8.5369 55.7091 5.778C58.4291 3.01909 61.8946 1.14025 65.6674 0.379068C69.4402 -0.382112 73.3508 0.00855118 76.9047 1.50166C80.4586 2.99477 83.4962 5.52327 85.6333 8.7674C87.7704 12.0115 88.9111 15.8256 88.9111 19.7273L89 22.5455C89 33.0095 84.9018 43.0449 77.6069 50.444C70.312 57.8432 60.4179 62 50.1014 62L50.1014 50.7273C53.7517 50.7372 57.3678 50.0131 60.7405 48.5967C64.1133 47.1804 67.1757 45.0999 69.7508 42.4756C70.7516 41.4624 71.6749 40.3733 72.5126 39.2178C71.5179 39.3756 70.5009 39.4602 69.4673 39.4602L69.4618 39.4545ZM19.4493 39.4545C15.6026 39.4545 11.8423 38.2976 8.64385 36.1299C5.44543 33.9622 2.95256 30.8813 1.48049 27.2766C0.0084262 23.6719 -0.376736 19.7054 0.373715 15.8787C1.12417 12.052 2.97654 8.5369 5.69658 5.77799C8.41661 3.01909 11.8821 1.14024 15.6549 0.379064C19.4277 -0.382117 23.3383 0.00854681 26.8922 1.50166C30.4461 2.99477 33.4837 5.52326 35.6208 8.76739C37.7579 12.0115 38.8986 15.8256 38.8986 19.7273L38.9875 22.5455C38.9875 33.0095 34.8893 43.0449 27.5944 50.444C20.2995 57.8432 10.4055 62 0.088913 62L0.0889139 50.7273C3.73926 50.7372 7.35533 50.0131 10.7281 48.5967C14.1008 47.1804 17.1632 45.0999 19.7383 42.4756C20.7391 41.4624 21.6624 40.3733 22.5001 39.2178C21.5054 39.3756 20.4885 39.4602 19.4493 39.4602L19.4493 39.4545Z" fill="white"/>
</svg>
