<svg width="60" height="60" viewBox="0 0 60 60" fill="none" xmlns="http://www.w3.org/2000/svg">
<path d="M42.2623 25.3396C42.2623 32.5704 36.3741 38.4378 29.1176 38.4378C21.8612 38.4378 15.973 32.5704 15.973 25.3396C15.973 18.1087 21.8612 12.2413 29.1176 12.2413C36.3741 12.2413 42.2623 18.1087 42.2623 25.3396Z" fill="#92D23F"/>
<path d="M48.6121 3.81458C42.0167 3.81458 35.575 2.57369 29.4563 0.137876L29.1027 0L28.7491 0.137876C22.6303 2.57369 16.1886 3.81458 9.59327 3.81458H7.5178V23.4696H2.81341C1.26065 23.4696 0 24.7258 0 26.2731V42.1748C0 43.7221 1.26065 44.9783 2.81341 44.9783H11.269C13.4829 48.4865 16.5576 51.3972 20.2166 53.3734L29.1027 58.2144L37.9887 53.3888C45.8294 49.1299 50.7029 40.9493 50.7029 32.0486V3.81458H48.6121ZM1.87561 42.1748V26.2731C1.87561 25.7522 2.2907 25.3386 2.81341 25.3386H11.269C11.7917 25.3386 12.2068 25.7522 12.2068 26.2731V42.1748C12.2068 42.6957 11.7917 43.1093 11.269 43.1093H2.81341C2.30607 43.1093 1.87561 42.6957 1.87561 42.1748ZM14.0824 28.1268C17.2187 27.9582 19.7093 25.3539 19.7093 22.1981V17.3724C19.7093 16.0856 20.7547 15.0285 22.0614 15.0285C23.3682 15.0285 24.4136 16.0856 24.4136 17.3724V23.2551C24.4136 24.9097 25.7665 26.2578 27.4269 26.2578H34.3144C36.1131 26.2578 37.5736 27.7131 37.5736 29.4902V39.8462C37.5736 41.6386 36.1131 43.094 34.3144 43.094H20.4779C19.7246 43.094 19.0482 42.7263 18.6331 42.1135C17.8644 40.9799 16.5884 40.2905 15.2201 40.2905H14.0824V28.1268ZM48.8273 32.0486C48.8273 40.2599 44.3228 47.8124 37.0971 51.7496L29.118 56.085L21.139 51.7496C17.8644 49.9725 15.1125 47.4141 13.0831 44.3196C13.652 43.8447 14.0209 43.1553 14.0824 42.3587C15.9734 45.6217 18.71 48.2873 22.0461 50.0951L29.1334 53.9403L36.2207 50.0951C42.8622 46.495 46.9824 39.5705 46.9824 32.0333V17.8473H45.1068V32.0333C45.1068 38.8811 41.3556 45.1775 35.3291 48.4405L29.1488 51.7955L22.9685 48.4405C20.3242 47.0005 18.095 44.963 16.4346 42.5119C16.696 42.6804 16.9266 42.8795 17.1111 43.1553C17.8798 44.2889 19.1558 44.9783 20.5241 44.9783H34.3605C37.1893 44.9783 39.4954 42.6804 39.4954 39.8616V29.5055C39.4954 26.6867 37.1893 24.3888 34.3605 24.3888H27.473C26.8427 24.3888 26.3354 23.8832 26.3354 23.2551V17.3724C26.3354 15.0438 24.4444 13.1595 22.1076 13.1595C19.7707 13.1595 17.8798 15.0438 17.8798 17.3724V22.1981C17.8798 24.3275 16.2194 26.0739 14.1132 26.2271C14.0978 25.4152 13.7442 24.6952 13.1754 24.1896V9.31431C18.6331 8.97728 23.9986 7.87427 29.1334 6.00528C34.2836 7.87427 39.6491 8.97728 45.0914 9.31431V10.356H46.9671V7.53724L46.06 7.5066C40.3717 7.24617 34.7756 6.11252 29.4409 4.15161L29.118 4.02905L28.7798 4.13629C23.4451 6.11252 17.849 7.24617 12.1607 7.5066L11.269 7.53724V23.4543H9.39341V5.68357H9.60864C16.3116 5.68357 22.8763 4.44268 29.118 2.00687C35.3598 4.44268 41.9091 5.68357 48.6274 5.68357H48.8427L48.8273 32.0486Z" fill="#717171"/>
<path d="M46.9515 14.1096H45.0759V15.9786H46.9515V14.1096Z" fill="#717171"/>
<path d="M10.3315 39.3721H3.75146V41.2411H10.3315V39.3721Z" fill="#717171"/>
<path d="M42.1563 25.4005C42.1563 32.649 36.283 38.5307 29.0448 38.5307C21.8066 38.5307 15.9332 32.649 15.9332 25.4005C15.9332 18.1521 21.8066 12.2704 29.0448 12.2704C36.283 12.2704 42.1563 18.1521 42.1563 25.4005Z" fill="#92D23F"/>
<path d="M48.4898 3.82386C41.911 3.82386 35.4855 2.57996 29.3822 0.138212L29.0294 0L28.6767 0.138212C22.5733 2.57996 16.1479 3.82386 9.56914 3.82386H7.49889V23.5267H2.80633C1.25748 23.5267 0 24.786 0 26.3371V42.2775C0 43.8286 1.25748 45.0878 2.80633 45.0878H11.2407C13.4489 48.6045 16.516 51.5224 20.1657 53.5034L29.0294 58.3562L37.8932 53.5187C45.7141 49.2495 50.5753 41.049 50.5753 32.1266V3.82386H48.4898ZM1.87089 42.2775V26.3371C1.87089 25.8149 2.28494 25.4003 2.80633 25.4003H11.2407C11.7621 25.4003 12.1761 25.8149 12.1761 26.3371V42.2775C12.1761 42.7996 11.7621 43.2143 11.2407 43.2143H2.80633C2.30027 43.2143 1.87089 42.7996 1.87089 42.2775ZM14.047 28.1952C17.1754 28.0263 19.6597 25.4156 19.6597 22.2521V17.4147C19.6597 16.1247 20.7025 15.0651 22.0059 15.0651C23.3094 15.0651 24.3522 16.1247 24.3522 17.4147V23.3118C24.3522 24.9703 25.7017 26.3217 27.3579 26.3217H34.2281C36.0223 26.3217 37.4791 27.7806 37.4791 29.562V39.9433C37.4791 41.74 36.0223 43.1989 34.2281 43.1989H20.4264C19.675 43.1989 19.0003 42.8304 18.5862 42.2161C17.8194 41.0797 16.5466 40.3886 15.1818 40.3886H14.047V28.1952ZM48.7045 32.1266C48.7045 40.3579 44.2112 47.9288 37.0037 51.8756L29.0448 56.2216L21.0858 51.8756C17.8194 50.0942 15.0745 47.5296 13.0502 44.4275C13.6176 43.9514 13.9857 43.2603 14.047 42.4618C15.9332 45.7328 18.6629 48.4049 21.9906 50.217L29.0601 54.0716L36.1296 50.217C42.7544 46.6081 46.8642 39.6668 46.8642 32.1112V17.8908H44.9933V32.1112C44.9933 38.9758 41.2516 45.2875 35.2402 48.5585L29.0755 51.9216L22.9107 48.5585C20.2731 47.1149 18.0495 45.0725 16.3933 42.6154C16.654 42.7843 16.884 42.9839 17.068 43.2603C17.8348 44.3968 19.1076 45.0878 20.4724 45.0878H34.2741C37.0957 45.0878 39.396 42.7843 39.396 39.9586V29.5774C39.396 26.7517 37.0957 24.4482 34.2741 24.4482H27.4039C26.7752 24.4482 26.2691 23.9414 26.2691 23.3118V17.4147C26.2691 15.0805 24.3829 13.1916 22.052 13.1916C19.721 13.1916 17.8348 15.0805 17.8348 17.4147V22.2521C17.8348 24.3867 16.1786 26.1374 14.0777 26.291C14.0623 25.4771 13.7096 24.7553 13.1422 24.2485V9.33699C18.5862 8.99913 23.9382 7.89344 29.0601 6.0199C34.1974 7.89344 39.5494 8.99913 44.978 9.33699V10.3813H46.8489V7.55559L45.9441 7.52487C40.2701 7.26381 34.6881 6.1274 29.3668 4.16172L29.0448 4.03886L28.7074 4.14636C23.3861 6.1274 17.8041 7.26381 12.1301 7.52487L11.2407 7.55559V23.5114H9.36978V5.6974H9.58447C16.2706 5.6974 22.8187 4.4535 29.0448 2.01175C35.2709 4.4535 41.8036 5.6974 48.5051 5.6974H48.7198L48.7045 32.1266Z" fill="#717171"/>
<path d="M46.8335 14.144H44.9626V16.0176H46.8335V14.144Z" fill="#717171"/>
<path d="M10.3051 39.4674H3.7417V41.341H10.3051V39.4674Z" fill="#717171"/>
</svg>
