<svg width="60" height="60" viewBox="0 0 60 60" fill="none" xmlns="http://www.w3.org/2000/svg">
<g clip-path="url(#clip0_51_3832)">
<path d="M24.4778 46.8501L12.5654 34.8417L31.2069 16.05L43.1276 28.0667L24.4778 46.8501Z" fill="#0DC7C2"/>
<path d="M53.2792 46.4502C51.692 46.4502 50.4023 47.7502 50.4023 49.3502C50.4023 50.9502 51.692 52.2502 53.2792 52.2502C54.8664 52.2502 56.156 50.9502 56.156 49.3502C56.156 47.7502 54.8664 46.4502 53.2792 46.4502ZM53.2792 50.3252C52.7501 50.3252 52.3202 49.8919 52.3202 49.3585C52.3202 48.8252 52.7501 48.3919 53.2792 48.3919C53.8082 48.3919 54.2381 48.8252 54.2381 49.3585C54.2381 49.8919 53.8082 50.3252 53.2792 50.3252Z" fill="#717171"/>
<path d="M41.7635 42.5833C40.1763 42.5833 38.8867 43.8833 38.8867 45.4833C38.8867 47.0833 40.1763 48.3833 41.7635 48.3833C43.3508 48.3833 44.6404 47.0833 44.6404 45.4833C44.6404 43.8833 43.3508 42.5833 41.7635 42.5833ZM41.7635 46.4499C41.2345 46.4499 40.8046 46.0166 40.8046 45.4833C40.8046 44.9499 41.2345 44.5166 41.7635 44.5166C42.2926 44.5166 42.7225 44.9499 42.7225 45.4833C42.7225 46.0166 42.2926 46.4499 41.7635 46.4499Z" fill="#717171"/>
<path d="M44.7065 53.9086L48.5506 40.3502L50.3941 40.8836L46.55 54.4419L44.7065 53.9086Z" fill="#717171"/>
<path d="M42.4414 34.5585L48.8812 28.0669L42.4414 21.5752L41.0857 22.9419L46.1697 28.0669L41.0857 33.1919L42.4414 34.5585Z" fill="#717171"/>
<path d="M31.1987 12.9835L36.2827 18.1085L37.6385 16.7418L31.1987 10.2501L24.7589 16.7418L26.1147 18.1085L31.1987 12.9835Z" fill="#717171"/>
<path d="M13.2433 28.3501L6.80347 34.8418L13.2433 41.3334L14.599 39.9668L9.51496 34.8418L14.599 29.7168L13.2433 28.3501Z" fill="#717171"/>
<path d="M24.4778 49.9249L19.3937 44.7999L18.038 46.1666L24.4778 52.6583L30.9175 46.1666L29.5618 44.7999L24.4778 49.9249Z" fill="#717171"/>
<path d="M29.5536 22.9419L30.9093 21.5752L37.6302 28.3502L36.2745 29.7169L29.5536 22.9419Z" fill="#717171"/>
<path d="M26.6768 25.8419L28.0325 24.4752L33.7944 30.2836L32.4387 31.6502L26.6768 25.8419Z" fill="#717171"/>
<path d="M23.7916 28.7502L25.1474 27.3835L30.9093 33.1919L29.5535 34.5585L23.7916 28.7502Z" fill="#717171"/>
<path d="M20.9148 31.6502L22.2705 30.2836L28.0325 36.0919L26.6767 37.4586L20.9148 31.6502Z" fill="#717171"/>
<path d="M18.038 34.5503L19.3937 33.1836L26.1146 39.9586L24.7588 41.3253L18.038 34.5503Z" fill="#717171"/>
<path d="M48.8068 34.9084L52.3202 31.3668V10.2418L48.8812 6.77509H47.0708C46.4425 5.75843 45.6406 4.74176 44.7065 3.80009C41.8131 0.883427 37.7046 -1.17491 35.7867 0.750093C34.464 2.08343 35.0261 4.45843 36.4563 6.76676H27.925L0.0826416 34.8418L24.4778 59.4334L35.1088 48.7168C35.7536 55.0501 41.0774 60.0001 47.5172 60.0001C54.3951 60.0001 60 54.3584 60 47.4168C60 40.9251 55.0895 35.5584 48.8068 34.9084ZM37.1424 2.12509C37.7707 1.48343 40.5731 2.37509 43.3425 5.17509C43.855 5.69176 44.318 6.23343 44.7313 6.77509H38.7875C37.1342 4.57509 36.6382 2.64176 37.1424 2.12509ZM2.79413 34.8418L28.7104 8.71676H37.8616C38.1592 9.07509 38.4816 9.42509 38.8041 9.75009C40.0937 11.0501 41.4907 12.0834 42.8382 12.7501C42.7638 13.0084 42.7142 13.2751 42.7142 13.5501C42.7142 15.1501 44.0038 16.4501 45.591 16.4501C47.1783 16.4501 48.4679 15.1501 48.4679 13.5501C48.4679 11.9501 47.1783 10.6501 45.591 10.6501C44.9876 10.6501 44.4337 10.8334 43.9708 11.1501C42.8548 10.6501 41.6395 9.78343 40.507 8.70843H48.0711L50.3858 11.0418V30.5668L46.054 34.9334C40.3334 35.6084 35.7784 40.1918 35.1171 45.9584L24.4778 56.7001L2.79413 34.8418ZM44.6404 13.5501C44.6404 13.0168 45.0702 12.5834 45.5993 12.5834C46.1284 12.5834 46.5583 13.0168 46.5583 13.5501C46.5583 14.0834 46.1284 14.5168 45.5993 14.5168C45.0702 14.5168 44.6404 14.0834 44.6404 13.5501ZM47.5172 58.0668C41.6974 58.0668 36.9606 53.2918 36.9606 47.4251C36.9606 41.5584 41.6974 36.7834 47.5172 36.7834C53.337 36.7834 58.0738 41.5584 58.0738 47.4251C58.0738 53.2918 53.3452 58.0668 47.5172 58.0668Z" fill="#717171"/>
</g>
<defs>
<clipPath id="clip0_51_3832">
<rect width="60" height="60" fill="white"/>
</clipPath>
</defs>
</svg>
