<svg width="60" height="60" viewBox="0 0 60 60" fill="none" xmlns="http://www.w3.org/2000/svg">
<path d="M29.9999 13.5472C23.5941 13.5472 18.3882 18.759 18.3882 25.159V39.2767C19.6294 38.3472 21.0999 37.6943 22.7235 37.4414L24.6352 37.1472C26.0529 36.9296 27.0999 35.7119 27.0999 34.2767V34.1767H27.1176C24.8117 33.0884 23.2294 30.759 23.2294 28.059C23.2294 25.959 23.2294 24.1884 23.2294 24.1884L24.647 23.9061C26.8352 23.4649 28.7647 22.1767 30.0058 20.3178C31.247 22.1767 33.1705 23.4649 35.3647 23.9061L36.7823 24.1884V28.259C36.7823 30.9296 35.1882 33.2237 32.9 34.2531H32.9117V34.2767C32.9117 35.7119 33.9588 36.9296 35.3764 37.1472L37.2882 37.4414C38.9117 37.6884 40.3823 38.3414 41.6235 39.2767V25.159C41.6117 18.759 36.4058 13.5472 29.9999 13.5472Z" fill="#27AE60"/>
<path d="M33.6648 29.6708L33.7648 29.4649L32.0354 28.6002L31.9354 28.8061C31.5648 29.5414 30.8236 30.0002 30.0001 30.0002C29.1765 30.0002 28.4354 29.5414 28.0648 28.8061L27.9648 28.6002L26.2354 29.4649L26.3354 29.6708C27.0354 31.0708 28.4412 31.9355 30.0001 31.9355C31.5648 31.9355 32.9706 31.0649 33.6648 29.6708Z" fill="#717171"/>
<path d="M26.1823 12.1235C26.2764 12.8118 26.5529 13.4412 26.9529 13.9706C27.9235 13.7059 28.947 13.5529 30 13.5529C28.9353 13.5529 28.0647 12.6824 28.0647 11.6176H31.9353C31.9353 12.6824 31.0647 13.5529 30 13.5529C31.0588 13.5529 32.0764 13.7059 33.047 13.9706C33.447 13.4412 33.7235 12.8118 33.8176 12.1235C34.8941 12.7294 35.6529 13.8235 35.7764 15.1059C36.4823 15.5118 37.1353 15.9941 37.7353 16.5294V15.4824C37.7353 12.9941 36.1529 10.8706 33.947 10.0471C35.0823 8.98823 35.8 7.48235 35.8 5.80588C35.8058 2.60588 33.2 0 30 0C26.8 0 24.1941 2.60588 24.1941 5.80588C24.1941 7.47647 24.9117 8.98823 26.047 10.0471C23.8411 10.8706 22.2588 12.9941 22.2588 15.4824V16.5294C22.8588 15.9882 23.5176 15.5118 24.2176 15.1059C24.347 13.8235 25.1058 12.7294 26.1823 12.1235ZM30 1.93529C31.4235 1.93529 32.6588 2.71765 33.3353 3.87059H26.6706C27.3411 2.71765 28.5764 1.93529 30 1.93529ZM33.8706 5.80588C33.8706 7.94118 32.1353 9.67647 30 9.67647C27.8647 9.67647 26.1294 7.94118 26.1294 5.80588H33.8706Z" fill="#717171"/>
<path d="M56.9529 39.8118C56.0471 39.1353 54.9824 38.6588 53.8706 38.4353L51.1118 37.8823L50.8 36.6353C51.8706 35.8588 52.6765 34.7353 53.0294 33.4176L53.5235 32.947C54.5176 32 55.2706 30.8176 55.7 29.5176C55.9882 28.6588 56.1294 27.7647 56.1294 26.8588C56.1294 24.9294 55.3941 23.1765 54.1941 21.847V21.2941C54.1941 18.8059 52.6118 16.6823 50.4059 15.8588C51.1 15.2118 51.6294 14.4 51.9412 13.4882C54.3 13.1647 56.1294 11.1588 56.1294 8.71764C56.1294 6.04705 53.9588 3.87646 51.2882 3.87646C49.7059 3.87646 48.2647 4.63529 47.3647 5.89411C47.0647 5.84705 46.7647 5.81764 46.4529 5.81764C43.2529 5.81764 40.6471 8.42352 40.6471 11.6235C40.6471 13.2941 41.3647 14.8 42.5 15.8647C41.2059 16.3412 40.1353 17.2647 39.4588 18.4588C39.7 18.7941 39.9235 19.147 40.1294 19.5118C40.1353 19.5176 40.1412 19.5235 40.1412 19.5353C40.3471 19.9059 40.5353 20.2823 40.7 20.6706C40.8941 19.4765 41.6235 18.4941 42.6294 17.9353C42.7235 18.6765 43.0294 19.3471 43.4882 19.8941C42.5647 20.2588 41.7294 20.8176 41.0118 21.5059C41.1353 21.8823 41.2471 22.2647 41.3294 22.6588C41.3294 22.6647 41.3294 22.6647 41.3353 22.6706C41.4235 23.0647 41.4882 23.4647 41.5353 23.8706C42.5588 22.2823 44.3176 21.3059 46.2118 21.3059H48.6294C51.7 21.3059 54.1941 23.8059 54.1941 26.8706C54.1941 27.5706 54.0824 28.2588 53.8647 28.9176C53.7059 29.3882 53.4882 29.8412 53.2294 30.2647V29.7529C53.2294 28.3176 52.1588 27.0823 50.7353 26.8823L48.4941 26.5647C47.3294 26.4 46.4529 25.3882 46.4529 24.2118H44.5176C44.5176 24.6941 44.6 25.1647 44.7529 25.6059C42.8824 26.3059 41.6176 28.1 41.6176 30.1353V33.2412L41.8176 33.4294C42.1647 34.747 42.9647 35.8823 44.0412 36.6588L43.7294 37.8941L41.8765 38.2647C40.5882 37.3765 39.0765 36.7588 37.4294 36.5059L35.5176 36.2118C34.7471 36.0941 34.1529 35.5353 33.9529 34.8176C36.2176 33.5176 37.7471 31.0765 37.7471 28.2823V23.4176L35.5529 22.9765C33.6 22.5882 31.9176 21.4588 30.8118 19.8L30 18.5765L29.1941 19.7823C28.0882 21.4412 26.4059 22.5647 24.4529 22.9588L22.2588 23.3941V28.0588C22.2588 30.8882 23.7941 33.3588 26.0765 34.7118C25.9059 35.4765 25.2941 36.0706 24.4882 36.1941L22.5765 36.4882C20.9235 36.7412 19.4176 37.3588 18.1294 38.247L16.2765 37.8765L15.9647 36.6294C17.0353 35.8529 17.8412 34.7294 18.1941 33.4118L18.3941 33.2235V30.1176C18.3941 28.0823 17.1294 26.2882 15.2588 25.5882C15.4118 25.147 15.4941 24.6765 15.4941 24.1941H13.5588C13.5588 25.3706 12.6824 26.3823 11.5176 26.5529L9.27647 26.8765C7.85294 27.0765 6.78235 28.3118 6.78235 29.747V30.2588C6.52353 29.8353 6.30588 29.3823 6.14706 28.9118C5.92353 28.2529 5.81765 27.5647 5.81765 26.8647V22.2647C5.81765 21.7294 6.25294 21.2941 6.78824 21.2941H14.5294C16.1412 21.2941 17.6471 22.1176 18.5412 23.4471C18.6588 22.6647 18.8529 21.9118 19.1118 21.1941C18.4 20.5412 17.5706 20.0294 16.6588 19.7235C17.0412 19.2059 17.2941 18.5941 17.3824 17.9235C18.3824 18.4823 19.1118 19.4706 19.3118 20.6647C19.4765 20.2706 19.6706 19.8941 19.8765 19.5235C19.8824 19.5176 19.8882 19.5118 19.8882 19.5C20.0941 19.1353 20.3176 18.7882 20.5588 18.4471C19.8882 17.2529 18.8118 16.3294 17.5176 15.8529C18.6529 14.7941 19.3706 13.2882 19.3706 11.6176C19.3706 8.41764 16.7647 5.81176 13.5647 5.81176C10.3647 5.81176 7.75882 8.41764 7.75882 11.6176C7.75882 13.2882 8.47647 14.7941 9.61177 15.8588C8 16.4588 6.71176 17.7706 6.14706 19.4412C4.85882 19.7353 3.88824 20.8882 3.88824 22.2647V26.8647C3.88824 27.7706 4.03529 28.6647 4.31765 29.5235C4.75294 30.8235 5.50588 32.0118 6.49412 32.9529L6.98824 33.4235C7.33529 34.7412 8.14118 35.8647 9.21765 36.6412L8.90588 37.8882L6.14706 38.4412C5.03529 38.6647 3.97059 39.1412 3.06471 39.8176C1.14118 41.2412 0 43.5235 0 45.9059V60H60V45.9059C60 43.5235 58.8588 41.2412 56.9529 39.8118ZM51.2882 5.80588C52.8882 5.80588 54.1941 7.10588 54.1941 8.71176C54.1941 9.9647 53.3941 11.0235 52.2471 11.4294C52.1824 9.35293 51.0235 7.55293 49.3235 6.57646C49.8529 6.09411 50.5471 5.80588 51.2882 5.80588ZM46.4529 7.74117C47.8765 7.74117 49.1118 8.52352 49.7882 9.67646H43.1177C43.7882 8.52352 45.0235 7.74117 46.4529 7.74117ZM46.4529 19.3529C45.3882 19.3529 44.5176 18.4823 44.5176 17.4176H48.3882C48.3882 18.4882 47.5176 19.3529 46.4529 19.3529ZM46.4529 15.4823C44.3176 15.4823 42.5824 13.7471 42.5824 11.6118H50.3235C50.3235 13.7471 48.5882 15.4823 46.4529 15.4823ZM49.7353 19.4471C50.0177 18.9941 50.2 18.4823 50.2706 17.9294C51.1412 18.4176 51.7941 19.2294 52.0824 20.2059C51.3647 19.8294 50.5706 19.5706 49.7353 19.4471ZM13.5471 19.3529C12.4824 19.3529 11.6118 18.4823 11.6118 17.4176H15.4824C15.4824 18.4882 14.6176 19.3529 13.5471 19.3529ZM13.5471 7.74117C14.9706 7.74117 16.2059 8.52352 16.8824 9.67646H10.2176C10.8882 8.52352 12.1235 7.74117 13.5471 7.74117ZM17.4176 11.6118C17.4176 13.7471 15.6824 15.4823 13.5471 15.4823C11.4118 15.4823 9.67647 13.7471 9.67647 11.6118H17.4176V11.6118ZM9.72941 17.9118C9.79412 18.4353 9.96471 18.9176 10.2176 19.3529H8.27059C8.61765 18.7529 9.12353 18.2529 9.72941 17.9118ZM39.7941 53.6C39.9706 53.1588 40.1118 52.7118 40.2294 52.2588H42.5765V58.0647H38.7059V56.3176L39.7941 53.6ZM44.5176 52.2588C45.2824 52.2588 45.9412 51.8118 46.2529 51.1647L46.4529 51.5353V58.0647H44.5176V52.2588ZM47.4176 41.7294L48.1706 42.1059L47.6882 43.5529H45.8706C45.7706 43.2529 45.6529 42.9647 45.5294 42.6765L47.4176 41.7294ZM47.4176 49.247L46.4471 47.4529V47.0118C46.4471 46.4941 46.4 45.9823 46.3294 45.4823H47.7824L48.5824 47.0765L47.4176 49.247ZM49.7118 44.9941L49.4353 44.4412L49.9235 42.9765L50.6118 43.3235L49.7118 44.9941ZM52.3471 40.1L51.5294 41.6176L49.3471 40.5235L50.5294 39.7353L52.3471 40.1ZM47.4176 39.4823L45.6177 38.2823L45.8118 37.5118C46.3235 37.6588 46.8588 37.7412 47.4176 37.7412C47.9765 37.7412 48.5118 37.647 49.0235 37.4941L49.2176 38.2765L47.4176 39.4823ZM43.5471 31.9353V30.1176C43.5471 28.7823 44.4529 27.6235 45.7471 27.3L45.8235 27.2823C46.4588 27.9059 47.2882 28.3294 48.2176 28.4647L50.4588 28.7823C50.9353 28.847 51.2882 29.2588 51.2882 29.7412V31.9353C51.2882 34.0706 49.5529 35.8059 47.4176 35.8059C45.2824 35.8059 43.5471 34.0706 43.5471 31.9353ZM44.3118 39.7353L45.4941 40.5235L44.5882 40.9765C44.3177 40.5823 44.0235 40.2118 43.7 39.8588L44.3118 39.7353ZM44.5176 47.0118V50.3235H40.5941C40.6294 49.947 40.6471 49.5706 40.6471 49.1882C40.6471 47.9118 40.4412 46.647 40.0353 45.4353L39.6294 44.2118L37.7941 44.8235L38.2 46.047C38.5353 47.0647 38.7118 48.1235 38.7118 49.1882C38.7118 50.4588 38.4706 51.7 38 52.8823L36.7765 55.947V58.0706H30.9706V49.6L37.0118 38.3823L37.1353 38.4C41.4118 39.0647 44.5176 42.6823 44.5176 47.0118ZM30 47.3117L27.9706 43.547H32.0235L30 47.3117ZM24.1941 28.0647V24.9882L24.8353 24.8588C26.8588 24.4529 28.6529 23.4176 30 21.9059C31.3471 23.4235 33.1412 24.4588 35.1647 24.8588L35.8059 24.9882V28.2647C35.8059 31.3529 33.2941 33.8706 30.2059 33.8706H30.0353C26.8118 33.8706 24.1941 31.2647 24.1941 28.0647ZM27.8647 35.4941C28.5529 35.6941 29.2824 35.8059 30.0353 35.8059H30.2059C30.8824 35.8059 31.5294 35.7059 32.1529 35.5412C32.5824 36.8 33.6353 37.7588 34.9882 38.0529L33.0706 41.6117H26.9294L25.0118 38.0529C26.3824 37.7588 27.4471 36.7765 27.8647 35.4941ZM22.8706 38.4059L22.9941 38.3882L29.0353 49.6V58.0647H23.2294V55.9412L22 52.8823C21.5294 51.7059 21.2882 50.4647 21.2882 49.1882C21.2882 48.1176 21.4588 47.0588 21.8 46.047L22.2059 44.8235L20.3706 44.2118L19.9588 45.4353C19.5529 46.647 19.3529 47.9118 19.3529 49.1882C19.3529 49.5706 19.3706 49.947 19.4059 50.3235H15.4824V47.0118C15.4824 42.6823 18.5882 39.0647 22.8706 38.4059ZM14.1235 43.547H12.3059L11.8235 42.1L12.5765 41.7235L14.4647 42.6647C14.3412 42.9588 14.2294 43.247 14.1235 43.547ZM10.0824 42.9765L10.5706 44.4412L10.2941 44.9941L9.39412 43.3235L10.0824 42.9765ZM12.2118 45.4823H13.6647C13.5941 45.9823 13.5471 46.4882 13.5471 47.0118V47.4529L12.5765 49.247L11.4118 47.0765L12.2118 45.4823ZM13.5471 51.5353L13.7471 51.1647C14.0588 51.8118 14.7176 52.2588 15.4824 52.2588V58.0647H13.5471V51.5353ZM17.4176 52.2588H19.7647C19.8882 52.7118 20.0235 53.1588 20.2 53.6L21.2882 56.3176V58.0647H17.4176V52.2588V52.2588ZM16.2941 39.8588C15.9765 40.2118 15.6765 40.5823 15.4118 40.9765L14.5059 40.5235L15.6882 39.7353L16.2941 39.8588ZM8.71177 29.7412C8.71177 29.2647 9.07059 28.8529 9.54118 28.7823L11.7824 28.4588C12.7118 28.3235 13.5412 27.8941 14.1765 27.2765L14.2588 27.3C15.5529 27.6235 16.4588 28.7823 16.4588 30.1176V31.9353C16.4588 34.0706 14.7235 35.8059 12.5882 35.8059C10.4529 35.8059 8.71765 34.0706 8.71765 31.9353V29.7412H8.71177ZM12.5824 37.7412C13.1412 37.7412 13.6765 37.647 14.1882 37.4941L14.3824 38.2765L12.5824 39.4765L10.7824 38.2765L10.9765 37.4941C11.4882 37.647 12.0235 37.7412 12.5824 37.7412ZM9.47647 39.7353L10.6588 40.5235L8.47647 41.6176L7.65882 40.1L9.47647 39.7353ZM1.93529 45.9059C1.93529 44.1235 2.78824 42.4235 4.21176 41.3529C4.66471 41.0118 5.17059 40.7529 5.70588 40.5588L11.6118 51.5353V58.0647H5.80588V47.4176H3.87059V58.0647H1.93529V45.9059ZM58.0647 58.0647H56.1294V47.4176H54.1941V58.0647H48.3882V51.5353L54.2941 40.5647C54.8294 40.7588 55.3353 41.0235 55.7882 41.3588C57.2118 42.4294 58.0647 44.1294 58.0647 45.9118V58.0647V58.0647Z" fill="#717171"/>
</svg>
