<svg width="40" height="40" viewBox="0 0 40 40" fill="none" xmlns="http://www.w3.org/2000/svg">
<path d="M20 40C31.0457 40 40 31.0457 40 20C40 8.95431 31.0457 0 20 0C8.95431 0 0 8.95431 0 20C0 31.0457 8.95431 40 20 40Z" fill="#29AAEC"/>
<path d="M7.40951 19.6382C7.0857 19.7905 6.89522 20.0286 6.82855 20.2382C6.77141 20.4382 6.78093 20.6572 6.89522 20.9525C6.97141 21.1429 7.14284 21.2953 7.40951 21.4096C10.3428 22.5144 11.9809 23.0572 12.3428 23.0572C12.7047 23.0572 13.0666 22.9715 13.4286 22.8001L15.9333 21.181L19.7714 18.7239L22.8286 16.8001C23.2381 16.5429 23.5047 16.3905 23.6285 16.3429C23.9333 16.2382 24.0571 16.2953 24.1428 16.3429C24.2286 16.3905 24.2857 16.5525 24.1428 16.8001C24.0952 16.8858 23.9619 17.0667 23.7428 17.3334L22.6952 18.3334L21.3143 19.6572L19.8286 21.0286L18.5809 22.2858L17.7619 23.0667L16.7047 24.0763C16.5619 24.2382 16.4857 24.4191 16.4762 24.6191C16.4666 24.8191 16.5238 25.0191 16.6476 25.2191L16.9143 25.5429L17.9333 26.2286L19.7714 27.5715C22.7714 29.6858 24.3428 30.8001 24.4952 30.9048C24.6476 31.0096 24.819 31.0858 25.019 31.1239C25.2952 31.1334 25.5809 31.0572 25.8666 30.9048C26.1524 30.7525 26.3809 30.3429 26.5333 29.6763C28.6857 19.5144 29.7905 14.2953 29.8571 14.0001C29.9047 13.762 30.0762 13.2191 30 12.762C29.9428 12.381 29.6571 12.0763 29.5238 11.962C29.3905 11.8477 29 11.7048 28.6571 11.7048C28.5428 11.7048 28.3809 11.7429 28.1619 11.8096L25.8762 12.6382L19.8476 14.9239L12.6666 17.6763C9.37141 18.8763 7.62855 19.5334 7.40951 19.6382Z" fill="white"/>
</svg>
