<svg width="68" height="68" viewBox="0 0 68 68" fill="none" xmlns="http://www.w3.org/2000/svg">
<path d="M34 0C15.2201 0 0 15.2201 0 34C0 52.7799 15.2201 68 34 68C52.7799 68 68 52.7799 68 34C68 15.2201 52.7799 0 34 0ZM56.9101 22.5221L33.4067 46.0255L26.9034 52.5289L20.4 46.0255L11.1128 36.7383C10.3141 35.9396 10.3141 34.6617 11.1128 33.8859L14.7638 30.2349C15.5624 29.4362 16.8403 29.4362 17.6161 30.2349L25.4886 38.1074C26.2872 38.906 27.5651 38.906 28.3409 38.1074L50.4295 16.0188C51.2282 15.2201 52.506 15.2201 53.2819 16.0188L56.9329 19.6698C57.6859 20.4685 57.6859 21.7463 56.9101 22.5221Z" fill="#27AE60"/>
</svg>
