<svg width="24" height="24" viewBox="0 0 24 24" fill="none" xmlns="http://www.w3.org/2000/svg">
<g clip-path="url(#clip0_427_792)">
<path d="M19.4405 5.25811C18.2402 5.25811 17.1327 4.86047 16.2433 4.18965C15.2233 3.42065 14.4905 2.29262 14.2317 0.992469C14.1676 0.671231 14.1331 0.339723 14.1298 0H10.7009V9.3693L10.6968 14.5013C10.6968 15.8733 9.80337 17.0367 8.56483 17.4458C8.20539 17.5646 7.81719 17.6208 7.41298 17.5987C6.89703 17.5703 6.41353 17.4146 5.99329 17.1632C5.099 16.6284 4.49267 15.6581 4.47624 14.5481C4.45036 12.8134 5.8528 11.399 7.58633 11.399C7.92852 11.399 8.25715 11.4549 8.56483 11.5563V8.99548V8.0749C8.24031 8.02684 7.91003 8.00178 7.57606 8.00178C5.67862 8.00178 3.90401 8.7905 2.63549 10.2114C1.6767 11.2852 1.1016 12.6552 1.01287 14.0917C0.896614 15.9789 1.58715 17.7728 2.92633 19.0964C3.1231 19.2907 3.32972 19.471 3.5458 19.6374C4.69396 20.521 6.09763 21 7.57606 21C7.91003 21 8.24031 20.9754 8.56483 20.9273C9.94591 20.7227 11.2202 20.0905 12.2258 19.0964C13.4615 17.8751 14.1442 16.2537 14.1516 14.528L14.1339 6.8643C14.7234 7.31905 15.3679 7.69533 16.0597 7.9874C17.1356 8.44133 18.2763 8.67137 19.4504 8.67096V6.18116V5.25729C19.4512 5.25811 19.4413 5.25811 19.4405 5.25811Z" fill="#999999"/>
</g>
<defs>
<clipPath id="clip0_427_792">
<rect width="24" height="24" fill="white"/>
</clipPath>
</defs>
</svg>
