<svg width="24" height="24" viewBox="0 0 24 24" fill="none" xmlns="http://www.w3.org/2000/svg">
<path d="M12.1449 19.9999C15.6168 19.9999 14.3788 17.8508 14.6468 17.2328C14.6428 16.7713 14.6388 16.3274 14.6548 16.0575C14.8748 16.1181 15.3938 16.3753 16.4658 17.3941C18.1208 19.027 18.5438 19.9999 19.8808 19.9999H22.3418C23.1217 19.9999 23.5277 19.6841 23.7307 19.4191C23.9267 19.1629 24.1187 18.7132 23.9087 18.0131C23.3597 16.3274 20.1578 13.4165 19.9588 13.1095C19.9888 13.0528 20.0368 12.9775 20.0618 12.9384H20.0598C20.6918 12.122 23.1037 8.58827 23.4587 7.17441C23.4597 7.17245 23.4607 7.16952 23.4607 7.16658C23.6527 6.52125 23.4767 6.10276 23.2947 5.86614C23.0207 5.51219 22.5848 5.33325 21.9958 5.33325H19.5348C18.7108 5.33325 18.0858 5.73903 17.7698 6.47921C17.2408 7.79432 15.7548 10.4989 14.6408 11.4561C14.6068 10.0999 14.6298 9.06445 14.6478 8.29494C14.6838 6.79405 14.7998 5.33325 13.2069 5.33325H9.3389C8.34091 5.33325 7.38592 6.39903 8.41991 7.66427C9.3239 8.77307 8.7449 9.39103 8.9399 12.4671C8.17991 11.6702 6.82793 9.51814 5.87194 6.76765C5.60394 6.02356 5.19794 5.33423 4.05496 5.33423H1.59398C0.595993 5.33423 0 5.86614 0 6.7569C0 8.75743 4.52895 19.9999 12.1449 19.9999ZM4.05496 6.8009C4.27195 6.8009 4.29395 6.8009 4.45495 7.24774C5.43394 10.0667 7.62992 14.2379 9.2339 14.2379C10.4389 14.2379 10.4389 13.0303 10.4389 12.5757L10.4379 8.95592C10.3719 7.75814 9.92589 7.1617 9.63289 6.79992L13.1409 6.80383C13.1429 6.82045 13.1209 10.8078 13.1509 11.7739C13.1509 13.1457 14.2648 13.9318 16.0038 12.2109C17.8388 10.186 19.1078 7.15876 19.1588 7.03556C19.2338 6.85956 19.2988 6.79992 19.5348 6.79992H21.9958H22.0058C22.0048 6.80285 22.0048 6.80578 22.0038 6.80872C21.7788 7.83538 19.5578 11.107 18.8148 12.1229C18.8028 12.1386 18.7918 12.1552 18.7808 12.1718C18.4538 12.694 18.1878 13.2709 18.8258 14.0824C18.8838 14.1509 19.0358 14.3112 19.2558 14.5341C19.2623 14.5408 19.2691 14.5475 19.2759 14.5544C19.9845 15.2695 22.2877 17.5938 22.4938 18.5235C22.3558 18.545 22.2058 18.5293 19.8808 18.5342C19.3858 18.5342 18.9988 17.8107 17.5218 16.3538C16.1938 15.0905 15.3318 14.5742 14.5468 14.5742C13.0229 14.5742 13.1339 15.7837 13.1479 17.2465C13.1529 18.8325 13.1429 18.3309 13.1539 18.4306C13.0649 18.4648 12.8099 18.5333 12.1449 18.5333C5.79994 18.5333 1.66798 8.68605 1.50898 6.80383C1.56398 6.79894 2.32097 6.80187 4.05496 6.8009Z" fill="#999999"/>
<path d="M4.05496 6.8009C4.27195 6.8009 4.29395 6.8009 4.45495 7.24774C5.43394 10.0667 7.62992 14.2379 9.2339 14.2379C10.4389 14.2379 10.4389 13.0303 10.4389 12.5757L10.4379 8.95592C10.3719 7.75814 9.92589 7.1617 9.63289 6.79992L13.1409 6.80383C13.1429 6.82045 13.1209 10.8078 13.1509 11.7739C13.1509 13.1457 14.2648 13.9318 16.0038 12.2109C17.8388 10.186 19.1078 7.15876 19.1588 7.03556C19.2338 6.85956 19.2988 6.79992 19.5348 6.79992H21.9958H22.0058C22.0048 6.80285 22.0048 6.80578 22.0038 6.80872C21.7788 7.83538 19.5578 11.107 18.8148 12.1229C18.8028 12.1386 18.7918 12.1552 18.7808 12.1718C18.4538 12.694 18.1878 13.2709 18.8258 14.0824C18.8838 14.1509 19.0358 14.3112 19.2558 14.5341L19.2759 14.5544C19.9845 15.2695 22.2877 17.5938 22.4938 18.5235C22.3558 18.545 22.2058 18.5293 19.8808 18.5342C19.3858 18.5342 18.9988 17.8107 17.5218 16.3538C16.1938 15.0905 15.3318 14.5742 14.5468 14.5742C13.0229 14.5742 13.1339 15.7837 13.1479 17.2465C13.1529 18.8325 13.1429 18.3309 13.1539 18.4306C13.0649 18.4648 12.8099 18.5333 12.1449 18.5333C5.79994 18.5333 1.66798 8.68605 1.50898 6.80383C1.56398 6.79894 2.32097 6.80187 4.05496 6.8009Z" fill="#999999"/>
</svg>
