<svg width="40" height="40" viewBox="0 0 40 40" fill="none" xmlns="http://www.w3.org/2000/svg">
<path d="M20 40C31.0457 40 40 31.0457 40 20C40 8.95431 31.0457 0 20 0C8.95431 0 0 8.95431 0 20C0 31.0457 8.95431 40 20 40Z" fill="#60D66A"/>
<path d="M8.57153 31.8001L10.2051 25.8356C9.19757 24.09 8.66759 22.1098 8.66814 20.0815C8.6709 13.735 13.8354 8.57153 20.1825 8.57153C23.2625 8.57264 26.1531 9.77172 28.3271 11.9474C30.5006 14.1231 31.6974 17.0153 31.6963 20.0909C31.6936 26.4368 26.5279 31.6014 20.1825 31.6014C20.182 31.6014 20.1831 31.6014 20.1825 31.6014H20.1775C18.2508 31.6008 16.3573 31.1172 14.6757 30.2002L8.57153 31.8001ZM14.9583 28.1156L15.3078 28.3227C16.7768 29.1944 18.4612 29.6553 20.1786 29.6564H20.1825C25.4569 29.6564 29.7503 25.3647 29.7525 20.0892C29.7531 17.5326 28.7588 15.1289 26.9519 13.3209C25.145 11.5129 22.7424 10.5164 20.1858 10.5153C14.907 10.5159 10.6142 14.8071 10.612 20.082C10.6114 21.8895 11.1171 23.65 12.0749 25.1731L12.3029 25.5353L11.3357 29.0657L14.9583 28.1156Z" fill="white"/>
<path d="M8.97174 31.3981L10.549 25.6401C9.57625 23.9546 9.06449 22.0428 9.06504 20.0847C9.0678 13.9579 14.054 8.97388 20.1803 8.97388C23.1537 8.97498 25.9449 10.1327 28.0427 12.2327C30.1417 14.3327 31.2966 17.1245 31.2955 20.0935C31.2927 26.2203 26.3065 31.2054 20.1803 31.2054C20.1797 31.2054 20.1808 31.2054 20.1803 31.2054H20.1753C18.3148 31.2049 16.487 30.7378 14.8639 29.8529L8.97174 31.3981Z" fill="#60D66A"/>
<path d="M8.57153 31.8001L10.2051 25.8356C9.19757 24.09 8.66759 22.1098 8.66814 20.0815C8.6709 13.735 13.8354 8.57153 20.1825 8.57153C23.2625 8.57264 26.1531 9.77172 28.3271 11.9474C30.5006 14.1231 31.6974 17.0153 31.6963 20.0909C31.6936 26.4368 26.5279 31.6014 20.1825 31.6014C20.182 31.6014 20.1831 31.6014 20.1825 31.6014H20.1775C18.2508 31.6008 16.3573 31.1172 14.6757 30.2002L8.57153 31.8001ZM14.9583 28.1156L15.3078 28.3227C16.7768 29.1944 18.4612 29.6553 20.1786 29.6564H20.1825C25.4569 29.6564 29.7503 25.3647 29.7525 20.0892C29.7531 17.5326 28.7588 15.1289 26.9519 13.3209C25.145 11.5129 22.7424 10.5164 20.1858 10.5153C14.907 10.5159 10.6142 14.8071 10.612 20.082C10.6114 21.8895 11.1171 23.65 12.0749 25.1731L12.3029 25.5353L11.3357 29.0657L14.9583 28.1156Z" fill="url(#paint0_linear_206_4798)"/>
<path fill-rule="evenodd" clip-rule="evenodd" d="M17.3046 15.2696C17.0893 14.7904 16.8624 14.781 16.657 14.7727C16.4892 14.7656 16.2976 14.7661 16.1055 14.7661C15.9139 14.7661 15.602 14.8384 15.3381 15.1261C15.0743 15.4137 14.3312 16.1098 14.3312 17.5253C14.3312 18.9408 15.3624 20.3088 15.506 20.5009C15.6501 20.6925 17.4962 23.6902 20.4204 24.8435C22.8506 25.8018 23.3453 25.6114 23.873 25.5634C24.4008 25.5153 25.575 24.8678 25.8152 24.1959C26.0548 23.524 26.0548 22.9482 25.983 22.8279C25.9112 22.7081 25.7191 22.6363 25.4315 22.4922C25.1439 22.3481 23.7295 21.652 23.4656 21.5565C23.2017 21.4604 23.0101 21.4124 22.818 21.7006C22.6265 21.9882 22.075 22.6363 21.9071 22.8279C21.7393 23.02 21.5715 23.0443 21.2839 22.9002C20.9962 22.7561 20.0693 22.4525 18.9702 21.4726C18.115 20.7102 17.5376 19.7684 17.3697 19.4802C17.2019 19.1926 17.3515 19.0363 17.4962 18.8933C17.6253 18.7647 17.7838 18.5577 17.9279 18.3893C18.0714 18.2215 18.1194 18.1017 18.2155 17.9096C18.3115 17.7174 18.2635 17.5496 18.1917 17.4055C18.1194 17.2609 17.5602 15.8382 17.3046 15.2696Z" fill="white"/>
<defs>
<linearGradient id="paint0_linear_206_4798" x1="20.134" y1="31.8001" x2="20.134" y2="8.57153" gradientUnits="userSpaceOnUse">
<stop stop-color="#F9F9F9"/>
<stop offset="1" stop-color="white"/>
</linearGradient>
</defs>
</svg>
