<svg width="24" height="24" viewBox="0 0 24 24" fill="none" xmlns="http://www.w3.org/2000/svg">
<g clip-path="url(#clip0_427_787)">
<path fill-rule="evenodd" clip-rule="evenodd" d="M4.096 3.27118C8.751 2.58018 15.251 2.58018 19.904 3.27118C21.766 3.54718 23.233 5.00918 23.553 6.90618C24.149 10.4292 24.149 13.5712 23.553 17.0942C23.231 18.9932 21.765 20.4542 19.905 20.7302C17.582 21.0762 14.797 21.2482 12.011 21.2482C9.22 21.2482 6.428 21.0752 4.096 20.7292C2.234 20.4532 0.767 18.9922 0.447 17.0932C-0.149 13.5712 -0.149 10.4302 0.447 6.90718C0.767 5.00918 2.234 3.54718 4.096 3.27118ZM8.80469 8.4999C8.80469 7.9179 9.44169 7.5589 9.93869 7.8559L15.8087 11.3609C16.2947 11.6529 16.2957 12.3589 15.8077 12.6499L9.93869 16.1449C9.44269 16.4389 8.80469 16.0849 8.80469 15.4999V8.4999Z" fill="#999999"/>
</g>
<defs>
<clipPath id="clip0_427_787">
<rect width="24" height="24" fill="white"/>
</clipPath>
</defs>
</svg>
